<?xml version="1.0" encoding="utf-8"?>
<!-- Generator: Adobe Illustrator 19.0.0, SVG Export Plug-In . SVG Version: 6.00 Build 0)  -->
<svg version="1.1" id="Layer_1" xmlns="http://www.w3.org/2000/svg" xmlns:xlink="http://www.w3.org/1999/xlink" x="0px" y="0px"
	 viewBox="0 0 357 502.8" style="enable-background:new 0 0 357 502.8;" xml:space="preserve">
<style type="text/css">
	.st0{clip-path:url(#SVGID_2_);}
	.st1{fill:#7A7C7F;}
</style>
<g>
	<defs>
		<rect id="SVGID_1_" x="-9.7" y="27" width="428" height="495"/>
	</defs>
	<clipPath id="SVGID_2_">
		<use xlink:href="#SVGID_1_"  style="overflow:visible;"/>
	</clipPath>
	<g class="st0">
		<path class="st1" d="M-51.3,559.3c1.3,0.9,2.8,0.7,4.3,0.7c20.3,0.3,40.5,0.3,60.8,1.1c6.7,0.2,13.4,0.8,20,0.9
			c6.5,0,13.1-0.4,19.7-0.3c88.6,1.5,177.1,0.5,265.7,0.5c8.3,0,16.6-0.9,24.9-0.5c-0.3,1-1.2,1.2-2,1.7c-1.9,0.9-1.2,2.4-0.5,3.7
			c0.5,1.1,1,2.9,2.7,2c5-2.3,4.2,0.9,3.8,3.8c-138.1,0-276.3,0-414.4,0.1c-3.1,0-3.9-0.7-3.7-3.7c0.3-3.3,0.1-6.7,0.1-10
			C-63.7,559.2-57.5,559.2-51.3,559.3z"/>
		<path class="st1" d="M482.1,572.8c-1.1-3.6-3.6-5-7.3-4.9c-1.8,0.1-5.2,0.9-2.7-3.1c0.4-0.6,0.3-1.3-0.2-1.8
			c-0.6-0.5-1.2-0.4-1.8,0.1c-1,0.7-2,2.6-3.3,1.2c-1.2-1.3,1.2-2.1,1.4-3.3c0.1-0.3,0.2-0.5,0.3-0.8c5.1-0.1,10.2-0.2,15.3-0.2
			c1.6,2.3,3.2,2.5,4.8-0.1c7.6-0.2,15.1-0.4,22.7-0.7c0,3.9-0.1,7.8,0.1,11.7c0.1,1.7-0.3,2.1-2.1,2.1
			C500.1,572.7,491.1,572.8,482.1,572.8z M476.2,562.4c-1.1,0.1-2.3,0.3-2.3,1.7c0,1.5,1.4,1.4,2.4,1.4c1.1,0,2.3-0.1,2.3-1.6
			C478.5,562.4,477.3,562.5,476.2,562.4z"/>
		<path class="st1" d="M223.8,414.4c-0.2-3.5-0.4-7.1-0.6-10.6c-0.2-0.5-0.4-1-0.5-1.4c0-0.6-0.1-1.2-0.1-1.7c0.7-0.9,0.7-2,0.5-3.1
			c-0.1-1.8-0.2-3.7-0.2-5.5c0-0.6,0-1.2-0.1-1.9c-0.1-1-0.1-1.9-0.2-2.9c0.4-0.6,0.3-1.2-0.2-1.8c-0.7-3,1.3-6,0-9
			c0-0.4,0-0.9-0.1-1.3c0.5-3.5-0.1-7-0.3-10.5c0-0.6-0.1-1.2-0.1-1.8c-1.6-7.7,0-15.7-2.2-23.6c-2.1,0.9-2.9,4.3-5.6,2
			c0.1-0.2,0.3-0.4,0.4-0.7c1.4-1,2.4-2.4,2.8-4.2c0.2-0.1,0.2-0.2,0.3-0.4c1.1-0.3,1.9-0.8,2.1-2c1.8-4.1,3.5-8.2,3.2-12.9
			c1-0.7,0.8-2.6,2.6-2.4c0.5,3.9-1.5,7.5-1.5,11.3c-0.7,0.9-0.9,2-0.8,3.1c-0.7,1-1.2,2.1-0.7,3.3c0.4,3,0.7,6,1.1,9
			c-0.2,0.2-0.1,0.4,0.1,0.6c0,0.6,0.1,1.1,0.1,1.7c0,0.5,0,1,0,1.5c0,0.8,0,1.7,0,2.5c0,0.5-0.1,1-0.1,1.5
			c-0.1,1.4-0.2,2.9,0.8,4.1c0,0.5,0.1,1.1,0.1,1.6c-0.6,2.5,0.1,4.9,0.8,7.3c-0.2,2.4-0.6,4.7-0.2,7.1c0.2,7.2,0.3,14.4,0.5,21.7
			c-0.4,1.5-0.3,2.9,0,4.3c0,1.3,0,2.5-0.1,3.8c-0.4,2.2,0,4.3,0.8,6.4c0.1,0.9,0.2,1.8,0.4,2.7c0.1,3.7,0.2,7.4,0.3,11.1
			c-0.1,1.4-0.3,2.8,0.5,4.1c0.3,2.7,0.6,5.4,0.9,8c-0.6,0.5-0.6,1.1,0,1.6c0.9,2.9,1.9,5.8,2.8,8.7c-0.2,0.9-0.3,1.8,0.5,2.5
			c2.1,3.4,0.3,7,0.5,10.5c-0.2,0.8-0.3,1.5-0.5,2.3c-0.1,0.6-0.2,1.2-0.2,1.8c-0.7,1.1-0.5,2.3-0.4,3.5c0.7,4.8,1.6,9.3-1.4,14
			c-3.4,5.5-4.8,12.2-9.5,17c-4.3,4.4-11.1,4.2-14.9-0.4c-0.3-0.4-0.8-0.9-0.8-1.3c1-5.6-1.7-11.5,2-17.1c4.5-6.7,5.6-14.4,5.3-22.4
			c-0.1-2.6,0.3-5.3,0.3-7.9c0-1.3,0.2-2.8,2-3.1c0,0,0,0,0,0c0.6,4.2,4.3,4.4,7.1,6.3c3.6,2.4,4.8-0.5,5.6-1.6
			c1.5-2.1-1.6-1.9-2.5-2.9c-0.8-0.9-1.8-1.6-2.6-2.5c-0.8-1.1-2.5-2.4,0.8-2.7c2.1-0.2,0.8-1.4,0.2-2.2c-2.5-3.4-6-5.6-9.3-8.1
			c0.1-1.5-3.3-4,1.2-4.3c0.6,1.1,1.3,2.4,2.7,1.8c1.6-0.6,2.3-2.2,2.5-3.8c0.2-2-0.2-5.1,1.4-5.5
			C224.8,418.6,224,416.5,223.8,414.4z M215,465.8c5.8-2.4,10.3-6.4,14.5-10.9c0.2-0.2,0.3-0.4,0.4-0.7c0.4-0.9,0.7-1.9-0.4-2.4
			c-1-0.5-1.2,0.6-1.7,1.2c-1.9,2.5-4.1,4.5-6.8,6.1C218.5,460.7,216,462.7,215,465.8l-0.2,0.2L215,465.8z M207.8,486.5
			c0.3,1.7,0.5,4.3,1.4,6.6c1.6,4.4,4.9,5.1,8.3,1.9c0.8-0.7,1.6-1.5,2.3-2.3c2.1-2.4,1.8-3.8-1.4-4.2c-3.4-0.5-4.6-2.8-5.7-5.4
			c-0.6-1.6,0.1-4.6-2.1-4.4c-1.9,0.1-2,3.1-2.6,5C207.8,484.4,207.9,485.1,207.8,486.5z M220.1,466.1c-1.4,0-6.3,4.6-5.8,6
			c0.8,2.3,0.5,5.5,3.7,6.3c1.4,0.4,7.3-3.4,7.2-4.3C225.1,471.4,221.8,466.1,220.1,466.1z M225,443.5c0.2,0.1,0.4,0.2,0.6,0.3
			c0.1-0.2,0.3-0.5,0.2-0.6c-0.1-0.2-0.4-0.2-0.6-0.3C225.2,443.1,225.1,443.3,225,443.5z"/>
		<path class="st1" d="M488.5,559.8c-1.5,2.7-3.1,2.4-4.8,0.1C485.3,559.9,486.9,559.8,488.5,559.8z"/>
		<path class="st1" d="M167,209.7c-4.7,0.6-9.4-0.5-14.2-0.5c-2.2-0.4-4.3-0.5-6.5,0.2c-1.6-0.1-3.2-0.3-4.8-0.4
			c-0.6-0.5-1.3-1-1.9-1.5c0.5-0.2,1.1-0.4,1.6-0.6c2.2,0.8,4.5,0.8,6.7,0.2c1.6-0.3,3.2,0.4,4.7-0.5c0.6,0,1.1,0,1.7,0.1
			c1.1,0.2,2.1,0.3,3.2,0.5c0.6,0.4,1.1,0.4,1.7,0.1c0.5-0.1,1-0.1,1.4-0.2c1.3,0.7,2.7,0.9,4.1,0.3c0.6,0,1.1,0,1.7,0
			c2.5,0.7,4.9,0,7.4,0c4.3,1.6,8.9,1.1,13.3,1.1c1.1,0,2.6,0.6,2.9-1.6c0.3-1.8-0.6-2.5-1.9-2.9c-3.5-1.1-7.1-2.1-10.6-3.1
			c-0.4-0.6-0.8-1.3-1.2-1.9c3.1,0.6,6.3,1.2,9.4,1.8c0.7,0.2,1.5,0.4,2.2,0.6c1.3,0.6,2.6,1.9,4.2,0.6c0.6-0.5,1-1.3,0.6-2.1
			c-0.6-1.2-1.9-1.2-3.1-1c0-3.1,1.7-2.6,3.3-1.3c2.1,1.6,4.4,2.6,7.9,3.3c-2.8-3.3-4.5-6.3-7.9-7.7c-2.1-4.6-6.6-6.8-10.1-10
			c-5.4-4.2-9.8-9.7-15.5-13.6c-0.2-0.3-0.4-0.6-0.6-0.8c-1.1-0.6-1.3-2.3-2.7-2.6c0-1.1,0-2.2,0-3.3c2.9,2.6,5.9,5.1,8.8,7.7
			c2.7,4.2,7.5,6.3,10.7,10c1.2,1.3,3,3.8,5.8,2.3c1.5-0.3,1.8,0.6,2,1.8c-2.1,2.3,0.4,2.8,1.5,3.8c0.2,0.6,0.5,1.3,1.2,1.1
			c0.3-0.1,0.4-0.8,0.5-1.2c0,0,0,0,0,0c1.9,1.1,0.6,4.1,2.9,5.1c0.7,0.3,1.4,0.8,2.2,0.2c0.5-0.4,0.4-1,0.1-1.4
			c-1.6-2.2-2-5.3-4.9-6.5c-0.3-0.3-0.7-0.6-1-0.9c-1.2-1.2-0.3-4.3-3.4-3.9c-3.2-4.5-6.4-9-9.6-13.6c-0.1-0.6-0.2-1.1-0.3-1.7
			c1.2-0.6,1.7-0.2,2.5,0.9c2.5,3.4,5.1,6.8,8.3,9.7c0.5,2.3,2.2,3.6,4,4.8c-0.4,2.3,2.2,2.8,2.8,4.5c0.3,0.7,0.8,2,2,1
			c0.9-0.7,1.1-1.7,0.8-2.9c-0.7-2.6-3.4-1.6-4.8-2.8c2.5-2.5,1.4-4.5-0.8-6.3c-0.5-0.8-1.2-0.9-2-0.9c0.1-1.1,0.3-2.1,0.4-3.2
			c0.2-1.1-0.5-1.6-1.5-1.7c-0.9-1.1-1.3-2.6-2-3.8c-1.4-2.6-1.9-5.7-4.8-7.4c0.2-1.3-0.1-2.5-1.2-3.4c-0.3-1.8-0.9-3.6-2.4-4.8
			c-1.2-2.3-5.5-3.1-3.6-7c-1.8-4-3.1-8.4-7.4-10.6c0.2-1.1-0.1-1.8-1.3-2c0-0.4,0.1-0.9,0.1-1.3c0-0.4,0-0.8,0-1.2
			c0-1.1-2.3-1.8-0.7-2.9c1.8-1.2,2.3,0.9,3.4,1.7c1.3,0.9,0.4,3.4,2.7,3.4l0,0c-0.1,1.8,0.1,3.5,2.3,4.1c0,0,0.4,0,0.4,0l0.4,0
			c-1,2-0.9,3.3,1.8,3.1c0.1,1.4-0.9,3.3,1.3,4c0.6,2.8,0.4,6.1,4.5,6.4c-1.2,1.5-1.3,2.9,0.2,4.3c1.9,3.6,3.7,7.3,5.6,10.9
			c-0.1,1,0.6,1.4,1.3,1.7c0.1,1,0.6,1.7,1.4,2.2c0.8,5,4.5,8.4,6.6,12.6c0.6,1.2,1.7,1.7,3,1.1c1.7-0.7,0.4-1.8,0.2-2.7
			c-1.1-3.8-2.1-7.7-4.7-10.9c-1-6.1-3.8-11.5-6.5-16.9l0,0c-0.2-0.7-0.1-1.6-1.2-1.8c-0.1-0.9-0.1-1.8-0.2-2.7
			c3.8,2,4.3,6.1,6.2,9.4c-0.2,1.4,0.3,2.4,1.5,3.2c1.3,5.2,4.8,9.6,5.6,15.1c0.3,1.8,0.5,4,2,5.7c0.6,0.7,0.7,1.9,2,1.4
			c1-0.4,1.2-1.3,1.2-2.3c-0.1-2.5-1.2-4.6-2.1-6.9c-1.8-4.9-3.6-9.7-5.3-14.6c0-0.7-0.2-1.3-1-1.7c0.8-2.3-1.4-4.1-1.3-6.3
			c0.5-0.6,1-1.1,1.4-1.7c0.3,0.8,0.6,1.6,1,2.4c0.7,5.1,2.7,9.8,4.6,14.5c1.8,3.1,1.8,6.8,3.9,9.8c0.6,1.2-0.1,2.8,1,3.9
			c-0.1,1.2-0.2,2.3,0.6,3.3c1.7,5.6,3.4,11.2,5.1,16.8c0.5,1.5,1,2.6,2.7,1.1c2.6-0.3,4.3-3,7.2-2.7c0.2,1.4-1.3,1.5-1.9,2.3
			c-0.5,0.3-1,0.6-1.5,0.9c-2,1-4,2-6.1,3c-3.3,0.6-2.1,3.3-2.6,5.3c-0.9,4,2.1,7.1,2.5,10.8c2.6-0.6,1.6-2.3,1.3-3.8
			c0.5,0.1,1,0.3,1.6,0.4c-0.7,4.3,1.3,6.4,5.4,7.7c3.5,1,6.9,2.6,9.9,4.6c3.3,2.2,6.2,3.3,9.8,1.2c9.9-3.4,19.3-7.6,27-15.1
			c2.5-1.6,4.6-3.6,6.3-6.1c1.1-0.8,2.1-1.7,2.4-3.1c3.3-4,6.4-8,6.5-13.5c1.5-0.8,1.4-2.1,1.2-3.5c1.4-2.4,0.6-4.8,0.4-7.3
			c-0.1-1.4,0-2.4-1.8-2.2c-0.2-1.3,2.4-3.1-0.4-3.8c-4.1-1-2.6-2.9-1.1-5c3-2.2,5.9-4.5,8.3-7.3c0.8-0.4,1-1.1,1.1-1.9
			c0.6-5.8-4.3-7.1-7.9-9.5c-0.5-0.3-1-0.6-1.4-0.9c-0.8-1-1.7-1.7-3.1-1.8c-0.2-0.2-0.4-0.4-0.6-0.6c-0.2-1.1-0.9-1.6-2-1.7
			l-0.1-0.2l-0.2,0.1c0-0.2-0.1-0.4-0.3-0.5c-0.9-1.2-1.8-2.5-3.6-2.4l0,0c-3.2-3.8-7.7-5.7-11.6-8.4l-0.2-0.2
			c-2.8-2-5.7-3.9-8.5-5.9c0.1-0.5,0.2-1,0.3-1.6c7.3,3.8,14,8.5,20.8,13.2c5.5,3.8,10.8,7.7,16.2,11.6c3.1,2.5,6.1,5,4.5,9.7
			c-1.3,1.8-2.6,3.6-3.8,5.3c-1.6,1.7-2.1,3.7-1.9,6c-0.3,0.7-0.3,1.2,0.6,1.5c0,0.8-0.1,1.6-0.1,2.5c-0.6,0.3-0.6,0.5,0,0.7
			c0.1,0.8,0.3,1.5,0.4,2.3c-0.9,5.2-1.6,10.5-3.5,15.6c-2.9,7.5-7.5,13.8-13.5,19.2c-2.3,2-5.3,3-6.9,5.8
			c-4.6,2.6-9.2,5.1-13.8,7.7c-2.8,1-5.5,2.3-7.9,4.1c-3.1,1.2-1.2,3.8-1.6,5.7c-0.2,0.9-0.5,1.8-0.7,2.7
			c-1.5,9.6-3.7,19.1-6.7,28.3c-1.9,5.9-4.3,11.7-4.6,18.1c-0.8,0.9-1.5,1.8-1.4,3.1c-0.6,1.3-1.4,2.6-0.8,4.2
			c-0.7,2.4-1.4,4.7-2.1,7.1c-0.7,1.4-1.4,2.8-2,4.1c-0.3,1.3-0.5,2.6-0.8,3.9c-0.6,1.9,1,4.9-2.8,5c0-0.5-0.1-1.1-0.1-1.6
			c0.1-0.8,0.2-1.6,0.4-2.5c0.7-1.9,1.6-3.7,0.9-5.8c0.2-0.8,0.4-1.5,0.7-2.3c0.4-0.3,1.1-0.5,1.2-0.9c1.2-4.7,2.3-9.4,3.4-14.1
			c0.2-0.8-0.6-1-1.3-1.1c0-0.7,0-1.5-0.1-2.2c1.1-0.1,2.4,0,2.5-1.6c0-0.5,0.1-0.9,0.1-1.4c1.9-2.4,3.8-4.7,0.2-7.3
			c0-0.6-0.1-1.2-0.1-1.8c2.5,0.9,3.8,0.3,4.4-2.5c1.1-5.7,2.6-11.3,3.9-16.9c1.3-0.8,1.9-2-0.2-2.1c-5.5-0.3-5.5-0.1-4.9,5.9
			c0,0.5-0.4,1-0.6,1.5c-1.3-0.9-2.1-1.4-3.2,0.7c-2,3.8-2.1,8.5-5.3,11.8c-0.8,1.7-1.5,3.3-2.3,5c-0.6-0.3-1.2-0.7-1.8-1
			c-1.1-2.2,0.5-3.5,1.5-5c2.3-0.8,2.6-2.9,3.1-4.8c0.3-0.5,0.5-1,0.8-1.5c1.9-4.8,4.2-9.5,4.9-14.7c1.5,0,1.9-0.9,1.5-2.1
			c-0.3-0.9-0.9-0.7-1.4,0c-1,1.2-7.1-1.4-3,3.9c0.7,1-0.4,2-1.4,1.4c-3.5-2.5-4.2,0.6-5.4,2.6c-1.1,2.2-2.2,4.3-3.4,6.5
			c-1.1,0.6-1.8,1.4-2,2.6c-3.7,6.9-8.9,12.9-12.4,19.9c-0.1,0.2-0.3,0.5-0.4,0.7c-2.2,3.2-4.5,6.3-6.7,9.5c-0.4,0-0.9,0-1.3,0.1
			c0.5-3,3.4-4.7,4-7.7c0.4-1.8,1.7-3,2.8-4.3c2-2.5,3.5-5.1,2.9-8.4c0.2,0,0.4-0.2,0.5-0.4c3.9,0.4,4-3.1,5.2-5.3
			c0.6-1.2,0.4-2.9,2.2-3.4c2.6-1.8,3.7-4.8,5.1-7.4c1.1-2-2.7-1.2-2.7-3.1c0-0.5,0.2-1,0.3-1.5c4,2,6.6-0.3,8.1-3.4
			c1.7-3.6,4.2-6.7,5.1-10.7c-2.5-0.5-5.6-2.2-4,3c0.3,0.9-0.1,2.7-1.7,2.4c-0.9-0.2-1.4-2.9-2.6-0.4c-0.6,1.3-3.1,2.5-0.6,4.3
			c0.6,0.5,0.7,1.1,0,1.7c-0.5,0.4-1,0.3-1.4-0.1c-3.2-3.2-3.5-0.3-4.1,1.9c-2.5,0.6-4.1,2-4.1,4.7c-2.7,1.5-3.5,4.8-6.4,6.2
			c0.1-4.7,4.8-8,4.1-12.9l0,0.1c3,1.8,4.8,1.4,4.8-2.5c1.7,0,2.5-0.7,2.4-2.4c3.6-1.5,4.4-5.3,7.1-8c-2.3,1.7-2.8-3.1-4.8-1.1
			c-1.5,1.5-3,3.1-3,5.4c0,0.1,0,0.3,0,0.4c-1.4,0.2-2.4,0.8-2.4,2.4c-4.7,0.8,0.1-3.6-2.3-4.3c-0.6-0.2,0.1-1.1,0.5-1
			c2.8,0.5,3.2-1.6,2.3-3c-1.4-2.3-2,0.7-3.1,0.9c-1.2,0.2-2.7,1.8-3.5,0.1c-0.9-1.7-0.9-4,0.5-5.6c0.7-0.8,1.4-0.3,1.5,0.8
			c0.1,0.8-1.1,1.6,0.1,2.4c1.2-0.5,1.2-1.7,1.7-2.6c0.8-1.5,1.1-2.6-0.6-3.9c-1.7-1.3-2.5,0.3-3.3,0.9c-1.8,1.4-3.5,2.9-5.9,3.2
			c-0.4-1,1.4-2.3-0.4-3c-0.8-0.3-1.6,0.4-1.8,1.2c-0.4,1.8,0.8,1.9,2.2,1.8c-0.1,1.6-1.5,2.6-2.2,3.9c-0.4,0.3-0.8,0.5-1.3,0.8
			c-0.5,0.3-1,0.6-1.6,0.9c-1.5,0.2-2.4,1.2-3.1,2.4c-2.4,0.5-4.5,1.4-4.9,4.2c-0.3,0.5-0.5,0.9-0.8,1.4c-0.6,0.1-1.1,0.3-1.7,0.4
			c-4.7,0.5-3.8,3.7-3.2,6.7c-0.7,0-1.4,0-2,0c-0.1-2.5-1-4.2-3.5-2.1c-4.7,3.8-10.1,6.5-15.2,9.7c-0.4-0.4-0.8-0.8-1.2-1.2
			c1.4-1,2.8-1.9,4.1-3c4.7-3.8,10.4-6.2,14.8-10.3c1.7-0.3,3.4-0.4,3.1-2.9c0.6-0.1,1.1-0.2,1.7-0.4c0.3-0.3,0.5-0.5,0.8-0.8
			c0.2-0.2,0.3-0.4,0.3-0.7c2.3-1,4.8-1.9,6.2-4.2c1.1-0.4,2.4-0.6,3.3-1.2c1.1-0.8,2.7-1.7,1.9-3.4c-0.9-1.8-2.3-0.5-3.4,0
			c-1.5,0.7-3.4,0.7-4.4,2.3c-2.8,0.5-4.3,3.4-7.2,3.7c0-0.8-0.1-1.5-0.1-2.3c0.1-0.4,0.2-0.9,0.2-1.3c4.1-0.2,6.8-3,10-5
			c3.1-2,8.4-1,8.9-6.7c-1.7-0.3-3.2,0.6-3.7,1.4c-2.3,3.6-4.7,1.9-7.3,0.5c1.2,0.1,2-0.6,2.6-1.4c3.6-0.6,6.8-2.1,10.1-3.4
			c0.7-0.3,1.7-0.5,1.4-1.5c-0.3-1-1.2-0.6-2-0.4c-3.2,1-6.8,0.5-9.6,2.8c-2.9-1-5.8-1.5-8.7-0.3c-0.8-0.4-1.7-0.6-1.7-1.7
			c0.8-0.1,1.7-0.2,2.5-0.3c2.7-0.6,5.9,0.1,7.9-2.5c1.2-0.1,2.4,0,3.6-0.2c1-0.2,1.1-1.6,0.6-1.6c-1.5,0.2-4.2-1.8-4.3,1.8
			c-2.8-1.9-5.7-4.3-8,0.6c-0.8,0-0.9-0.6-1.1-1.1c0.2-0.8,0-1.9-0.8-2c-4-0.2-8-1.7-12.1-0.3c-0.4,0.1-0.9,0.2-1.3,0.3
			C168.8,209.6,168,209.4,167,209.7z M207.7,222.2c-0.2,0-0.5,0.1-0.7,0.1c0.1,0.1,0.1,0.3,0.2,0.4
			C207.4,222.5,207.5,222.3,207.7,222.2l0.2-0.2C207.9,222,207.7,222.2,207.7,222.2z M209.5,219.2l0.2,0.2l0.3,0
			c0.5,3.2,3.3,4.5,5.3,6.5c0.2,0.4,0.5,1.1,1.1,0.6c0.5-0.4,0.1-0.9-0.4-1.3c-1-5.6-2.7-11.1-2.9-16.8c0-0.8,0.1-1.6,0.1-2.3
			c1.3-0.8,1.1-2.2,0.5-3.1c-0.9-1.4-1.6,0.8-2.6,0.4c-1.2-1.4-1.9-0.3-2.3,0.6c-1,2.2-2.3,4.4-1.4,7c-0.8,2.3-0.1,4.4,1.3,6.2
			C208.6,218.1,208.7,218.8,209.5,219.2z M222.9,230.4c2.2,1.7,4.5,3.1,7.3,3.6c3.6,0.4,7.2,0.3,10.8,0.1c1-0.1,1.9-0.2,2-1.5
			c0.1-0.8-0.4-1.3-1.1-1.3c-4.9-0.1-9.1-3-13.8-3.8c-0.3-0.2-0.6-0.4-0.8-0.7c-3-1.8-6.1-3.6-9.1-5.5c0.3,2.1-0.4,4.2,1.6,5.2
			c0,0.5-0.1,0.9-0.1,1.4C219.8,230.1,221.1,230.5,222.9,230.4z M202.1,208.7c-2.4-1.6-5,0.2-6.3-2c-0.5-0.9-1.2-1.7-2.2-0.9
			c-0.5,0.4-0.9,1.3-1,2c-0.2,1.3,1,1.4,1.8,1.7C197,210.5,199.2,209.3,202.1,208.7z M202.6,185.5c-1.9,3.8-2,3.9,0.7,5.9
			c1.1,0.8,1,1.8,1.2,2.8c0.1,0.7,0.4,1.4,1.3,1.2c1-0.3,1-1.2,0.7-1.9C205.3,191,204.1,188.5,202.6,185.5z M206.3,187.1
			c0.8-2.3,1-3.9,0-5.2c-0.4-0.6-1.3,0-1.6,0.6C203.8,184.2,204.9,185.3,206.3,187.1z M215.6,200.1c0.3-3.4,0.4-5.6-0.4-8.7
			C213.6,194.8,214.3,197,215.6,200.1z M235.8,240.6c-2-1.2-3.5-1.4-5.4,0.5C232.4,241.6,233.9,242.8,235.8,240.6z M235.2,236.2
			c-0.9-0.1-1.7,0.3-1.7,1.2c0,1.1,1.1,1,1.8,1.2c0.9,0.4,1.7-0.1,1.6-1.1C236.9,236.6,235.9,236.5,235.2,236.2z M201,212.1
			c-0.1-0.6-0.6-0.9-1.1-0.8c-0.3,0.1-0.7,0.5-0.8,0.8c-0.1,0.6,0.3,1,0.9,1C200.7,213.1,201,212.7,201,212.1z M208.1,199
			c0.1,0.2,0.2,0.5,0.3,0.6c0.5,0.3,0.6-0.1,0.6-0.5c0-0.2-0.3-0.4-0.4-0.5C208.5,198.6,208.3,198.9,208.1,199z M204,208.6
			c0.2,0.1,0.4,0.3,0.6,0.3c0,0,0.2-0.2,0.2-0.2c-0.1-0.2-0.2-0.3-0.3-0.5C204.3,208.3,204.2,208.4,204,208.6z M189.6,184.8
			c-0.2-0.1-0.4-0.2-0.6-0.3c0,0-0.2,0.2-0.2,0.3c0,0.1,0.2,0.3,0.2,0.3C189.2,185,189.4,184.9,189.6,184.8z"/>
		<path class="st1" d="M60.4,74.4c-0.4-0.1-0.8-0.2-1.1-0.3c-2.9-1.1-5.4-4.4-9-1.5c-0.4,0.1-0.7,0.2-1.1,0.2c-1-0.2-1.7,0.3-2.3,1
			c-4.2,0.9-7.8,3.2-11.6,5.1c-2.8,1.4-4.3,3.3-4.4,6.4c0.1,0.6,0.2,1.1,0.2,1.7c-0.1,0.5-0.3,1-0.4,1.5c-1.2,1.4-0.7,3.1-0.9,4.7
			c-0.1,0.5-0.3,1-0.4,1.5c-1.1,0.3-1.1,1-0.8,1.9c-0.1,0.5-0.1,1.1-0.2,1.6c-1.8,1.6-3.8,2.6-6.3,1.5c-0.6-4-2.1-5.9-6.3-3.3
			c-0.7,0.4-1.8,0.1-2.7,0.2c-1.2-0.7-2.7-1.1-2.4-3c0.4-0.3,0.8-0.6,1.2-0.9c1.2-1.4,3.1-2.1,3.9-3.9c0.4-0.5,0.7-1,1.1-1.5
			c1.7-1.7,3.2-3.5,4.2-5.8c0.6-1.4,1.4-2.9,0.5-4.2c-1.2-1.6-2.9-0.7-4.4,0l0,0c0.2-2.7,2.7-3.1,4.4-4.2c3.5-2.2,7.3-4,10.1-7.1
			c0.6,0.1,1.7,0,1.8,0.3c1.9,4,3.7,2.3,5.4-0.1c0.5-0.1,1.1-0.2,1.6-0.2c0,2.1-1.1,3.6-2.1,5.3c-1.3,2.3-4.4,2-5.4,4.3
			c-0.5,0.3-1.3,0.8-0.7,1.4c0.9,0.8,1.6-0.1,2.1-0.9c1.7-0.2,3.2-1.1,4.8-1.8c4.6-1.9,8.8-5,14-5.7c6.3,2.6,12.5,5.2,18.8,7.9
			c0.3,0.6,0.8,0.9,1.5,1c0.4,0.6,1,0.8,1.7,0.8c0.6,0.7,1.4,1,2.3,0.9c2,1.7,3.9,3.5,6.7,3.8c1.1,1.5,2.7,2.2,4.5,2.5l0.1,0
			c1.4,1.4,3.1,2.1,5,2.3c1.4,0.7,2.8,1.4,4.2,2.2c0,0.6-0.1,1.3-0.1,1.9c-0.5-0.1-1-0.2-1.6-0.3c-0.5-0.2-1.1-0.5-1.6-0.7
			c-0.3-0.7-0.9-0.8-1.6-0.8c-3.4-2.1-7.3-3.2-10.8-5.2C75.3,81.1,68.1,77.1,60.4,74.4z M23.6,93.1c0,1.1,0,1.7,0,2.2
			c0,1.2-0.3,2.7,1.4,2.7c1.3,0.1,1.4-1.4,1.7-2.4c1-2.5-0.6-5,0.1-7.5c0.1-0.2-0.4-0.7-0.7-0.8c-0.8-0.2-1.2,0.3-1.6,0.9
			C23.4,90,23.8,91.9,23.6,93.1z"/>
		<path class="st1" d="M59.1,58.5c0.3,0.1,0.6,0.2,0.9,0.4c1,0.4,2.1,0.8,3.1,1.3c3.5,1.3,6.5,3.9,10.3,4.7c0.4,0.4,0.8,0.9,1.3,1.3
			c0,0.6-0.1,1.1-0.1,1.7c-5.3-1.1-9.6-4.6-14.9-5.6c-0.7-1-1.7-1.5-3-1.4c-2.4-0.8-4.7-1.6-7.1-2.4c-0.5-0.1-0.9-0.3-1.4-0.4
			c-1.2-0.7-2.4-0.9-3.7-0.7c-2.7-0.1-5.6-0.9-7.5,2c-1.3,0.1-2.6,0.2-3.6,1.3c-1-0.2-1.8,0.3-2.5,1c-5.5,3.7-10.3,8.3-15.1,12.8
			c-2.5,2.4-0.8,2.9,1.4,3.3c0,0,0,0,0,0c-1.2,2.8-3.4,4.6-5.8,6.2c-1.5,1.5-3.9,0.9-5.5,2.1c-0.7-0.3-1.5-0.5-2.2-0.8
			c-0.7-1.6-0.8-3.1,1-4.1c1.6-0.9,2.4-2.4,2.9-4.1c2.1-0.2,1.6-2.2,2.4-3.3c1.3,0.6,2.2,0.1,2.8-1.1c0.3-0.3,0.5-0.5,0.8-0.8
			c4.3-3.6,9.3-6.3,12.2-11.4c0.2,0.1,0.3,0,0.5-0.1c1.6,0.2,2.6-0.6,2.8-2.2c0.9-0.1,1.9-0.1,2.7-0.4
			C41.1,53.1,50.1,54.9,59.1,58.5z"/>
		<path class="st1" d="M215.6,316.3c0.8-3,3.3-1.4,5-2C220.5,318.9,217.8,316.9,215.6,316.3z"/>
		<polygon class="st1" points="4.4,88.4 4.2,88.3 4.5,88.2 		"/>
		<polygon class="st1" points="214.2,351.7 214.4,351.8 214.2,351.6 		"/>
		<path class="st1" d="M143.2,82.2c0.5,0.2,1,0.4,1.6,0.5c0.3,0.7,1,1,1.7,1c10.4,4.5,21.3,7.1,32.2,9.5c3.8,3.3,5.5,2.4,7.2-3.8
			c0.2-0.1,0.3-0.3,0.3-0.5c1.6-2.9,4.3-5,5.5-8.2c0,0,0,0,0,0c0.6-0.5,1.2-1,1.8-1.5c0.2,0,0.4-0.1,0.5-0.3
			c6.5-2.5,13.2-4,20.2-2.5c0.8-0.1,1.5-0.1,2.3-0.2c8.3,0.4,15.3,4.4,22.4,8.1c4.3,2.3,5.2,6.1,2.4,9.9c-4.2,5.6-1.3,10.4,1.1,15.3
			c0,0,0-0.1,0-0.1c0.2,3.7,1.1,7.1,4,9.7l0,0c-0.5,2.1,0.8,2.9,2.4,3.5c2.7,1,6.1,0.4,8.2,3c-0.1,0.5-0.2,1-0.3,1.6
			c-3.3-1.4-2.9,1.1-3.1,2.9c-4.2-0.4-6.4-3.4-8.5-6.5c-0.5-2.2-2.1-3.7-2.9-5.7c-2-4.6-5.9-6-10.4-6.4c-1-0.1-1.4-0.5-1.8-1.2
			c-0.4-0.9-0.9-1.9-2.1-1.1c-1.1,0.7-1.1,1.9-0.6,2.8c1,1.9,2.2,3.6,3.3,5.5c-0.1,0.5-0.1,1-0.2,1.5c-0.3,0-0.6,0.1-1,0.1
			c-3.3-4.8-6.8-9.2-13.6-8.2l0,0c-0.2-0.6-0.5-1.2-0.7-1.8c1.2-0.7,2.5-0.1,3.7,0c3.6-0.1,7-1.3,9.3-4c3.2-3.8,6.7-7.2,10.1-10.8
			c2.8-3,2.4-5.3-1.2-7.7c-0.3-0.1-0.6-0.1-1-0.2c-2.3-3.5-6.1-4.2-9.7-5.4c-0.3-0.1-0.6-0.2-0.8-0.3c-6.8-3.5-11.3-2.8-14.6,2.1
			c-1,1.2-2.1,2.3-3.1,3.5c-2.1,0.2-3.5-0.5-4.3-2.6c-1.2-3.3-3.3-3.9-7-2.3l0,0c-0.9,0.1-1.6,0.4-1.8,1.4c-6.1,4.6-8,11-7.7,18.3
			c-0.7,2.7,0.2,4.7,2.5,6.1c2,1.2,3.9,2.6,5.9,3.9c0.3,0.9-0.1,2.2,1.1,2.6c1,0.3,1.2-0.6,1.4-1.4c0.5,0.2,1,0.3,1.5,0.5
			c-0.4,3.5,3.7,0.9,4.3,3.1c0.7-0.3,0.7-1.1,0.8-1.7c1.5,0.4,3.3,0.4,4.5,1.3c3.8,2.9,7.7,3.9,12.3,0.9c-0.1,1.8-1.4,3.7,1.1,4.1
			c0,1,0,2,1.4,0.9c0.5,0.1,0.9,0.1,1.4,0.2c0.2,1,0.7,1.8,1.8,1.6c0.9-0.2,0.7-1.2,0.8-1.9c0.6,0.2,1.1,0.4,1.7,0.6
			c0.1,2.6,1.1,3.4,3.3,1.5c0.4,0.2,0.9,0.4,1.3,0.6c0.5,0.5,1.1,1.1,1.6,1.6l0,0.1c0.4,2,1.3,3.4,3.4,3.8c1.1,2,2.7,3.7,4.5,5
			c3.1,2.1,5.1,5.1,6.8,8.3c0.7,1.2,1.9,3.1,0.7,4c-1.7,1.1-1.9-1.6-3-2.3c-0.3-0.2-0.4-0.7-0.6-1c-4.8-8.1-12.4-13.4-20.8-16.4
			c-7.4-2.7-15.1-4.7-22.8-6.7c-0.2-0.2-0.4-0.2-0.7-0.2c-1.6-1.1-3.4-1.6-5.2-1.9c-5.9-2.4-11.8-4.9-17.7-7.3
			c-2.1-1.3-4.2-2.5-6.7-2.8c-3.2-1.5-6.5-2.7-9-5.4c-1.5-1.6-3.7-2.7-5.8-3.4c-9.1-3.2-18.2-6.3-27.3-9.3c-2.9-0.9-5.3-3.2-8.6-2.7
			c-0.3-0.8-0.9-1-1.7-0.8c-0.2-0.1-0.5-0.3-0.7-0.4c-5.2-2.9-11-3.5-16.6-5.2l-0.1-0.1c-0.5-1.2-1.7-0.9-2.6-1.3
			c-1.8-2.1-4.6-1.8-6.9-2.7c-4.8-2-9.5-4.6-14.8-5.5c-1.7-1.3-3.3-2.6-5-3.9c0-0.6,0.1-1.1,0.1-1.7c1.4,0.5,2.9,0.8,4,1.6
			c5.4,3.6,10,1.1,14.6-1.8c0.5-0.1,1-0.1,1.5-0.2c1.3,0.7,2.7,0.5,4.1,0.3c3.9,0.1,7.1,2.3,10.7,3.3c0.9,0.3,1.7,0.7,2.7,0.4
			c0.9,0.3,1.8,0.6,2.7,0.9c5,2.8,10.6,3.7,16,5.5c1.6,1.6,3.9,1.6,5.7,2.7C139,79.5,140.6,81.9,143.2,82.2z M102.8,69.9
			c-1.2-0.3-2.3-0.6-3.5-0.8c-0.8-0.2-2-0.9-2.4,0.3c-0.4,1.1,0.4,2.1,1.3,2.7c0.6,0.4,1.5,0.4,2.3,0.5c0.6,2.6,3.5,1.1,4.8,2.9
			c2.1,2.7,5.1,2.7,8.1,1.4c0.8,0.2,1.4,0.6,1.8,1.3c0.1,3.7,2.8,2.3,4.7,2.2c0.2,0.1,0.5,0.2,0.7,0.2c-0.2,1.4,0.4,2.4,1.7,2.7
			c2.9,0.8,5.7,2.2,8.8,1c0.5,0.4,1.1,0.7,1.6,1.1c0.1,1,0.5,1.8,1.5,2.1c8.5,2.2,16.1,6.8,24.6,9.1c2.9,0.8,5.2,2.6,7.7,4.1
			c0.6,0.1,1.1,0.3,1.7,0.4c1.6,1.2,3,2.7,4.7,3.7c2,1.2,4,1,5.9-0.5c2.2-1.7,1.6-4.1,1.3-6.2c-0.3-2.4-2.2-2.2-4-2.1
			c-4.6-2.1-9.6-2.9-14.4-4.4c-0.7-0.5-1.6-0.7-2.4-0.6c-0.5,0-1.1-0.1-1.6-0.1c-6.5-2.5-13.1-4.8-19.3-8c-6.7-4.7-14.8-6-22.3-8.6
			C111.9,72.2,107.3,71.3,102.8,69.9z"/>
		<path class="st1" d="M256.9,105.7c3.5-1.5,5.6-0.2,6.5,4.2c0.2,0.9,0.1,1.8,0.2,2.7c-0.1,0.6-1.7-0.5-1.1,1.2
			c0.5,1.3-0.8,2.4-2.1,2.8c-0.9,0.2-1.4-0.6-1.4-1.5c0-1.3,1.1-3.3-1.6-3c-2.9,0.3-0.9,2.5-1.2,3.7c-0.1,0.5,0,1.1,0,1.6
			c-0.6,1.4-1.4,0.8-2.6,0.6c-3.1-0.5-2.4-4.1-4.7-5.2c0.2-1.7-1-2.6-2.1-3.6c1.1-1.8,0.1-3.2-1-4.5c-2.1-3.2-0.3-6.9-1.4-10.3
			c-0.3-1.1,1.7-1.1,2.2-1.9c1-1.3,4.6-1.8,1.6-4.6c-0.7-0.6,0.4-1.6,1.5-1.7c4.4,3.2,4.9,3.2,7.3-0.4c0.1-0.2,0.5-0.2,0.7-0.3
			c0.3,0.2,0.7,0.4,1,0.7c-0.6,2.1-2.7,3.6-2.7,6.1l0.1,0c-2.2,1.4-4.9-2.9-6.9,0.7c0.8,1.3,2.4,0.1,3.2,1.2
			c-0.8,1.3-3.7,1.7-2.8,3.3c0.7,1.3,2.9,2.7,5,2.3c0.9-0.2,2.6,0.7,2.3,0.1c-1.4-3.5,2.2-1.1,2.5-2.3c0.3,0.8,0.7,1.5,1,2.3
			C259.1,101.7,257.2,103.2,256.9,105.7c-2.1-0.6-3.6,1.2-5.6,1.4c-1.1,0.1-0.7,2.4,0,2.4c1.8,0,3.8,0.5,5.3,0.1
			C258.1,109.1,257.1,107.1,256.9,105.7z"/>
		<path class="st1" d="M257.7,85.6c-0.2,0.1-0.6,0.1-0.7,0.3c-2.4,3.6-2.9,3.7-7.3,0.4C250.8,83.6,255,83.2,257.7,85.6z"/>
		<path class="st1" d="M328.7,112.4c0,1.7-1.3,1.8-2.5,1.9c-1.8,0.2-2.8-0.5-2.7-2.4c0.1-1.2-0.2-2.7,1.6-2.6
			C327,109.3,328.2,110.5,328.7,112.4z"/>
		<path class="st1" d="M273.2,68.8c2.2,1.4,3.1,2.7,0,4c-0.2-0.1-0.5-0.3-0.7-0.4c-1.2-0.6-2.9-1-2.7-2.5
			C270.1,68,272.1,69.4,273.2,68.8z"/>
		<path class="st1" d="M353.7,208.4c-0.5,0.1-1.1,0.1-1.6,0.2c-1.2,0.4-2.4,0.6-2.9-1c-0.3-1.2,0.1-2.1,1.4-2.4
			c1.4-0.3,1.5-1.8,2.4-2.5c0.2,0.1,0.5,0.1,0.7,0.1c0,0-0.1,0-0.1,0c0.5,1.1,1.5,2.2,0.1,3.3c-0.3,0.1-0.6,0.1-1,0.2
			c0.3,0.2,0.5,0.3,0.8,0.5C353.7,207.5,353.7,207.9,353.7,208.4z"/>
		<path class="st1" d="M291.7,78.8c0.5,0.4,1.1,0.8,1.5,1.2c0.7,0.7,2.1,1.1,1.4,2.4c-0.8,1.5-2,0.8-3,0.2c-0.3-0.2-0.7-0.4-1-0.6
			c-0.7-0.8-2.7-1-2.2-2.4C288.9,78.2,290.6,79.2,291.7,78.8z"/>
		<path class="st1" d="M300.2,85.2c1.3,0.1,2.4,0.8,3.5,1.4c0.2,0.2,0.5,0.5,0.7,0.7c0.8,0.8,1.3,1.6,0.8,2.8
			C301.8,90.3,300.2,88.6,300.2,85.2z"/>
		<path class="st1" d="M316.6,103.2c-0.2-2.8,1-3.6,3.1-1.6c1.1,1,3.1,1.9,2.1,4.1C319.4,106.1,318.3,104.1,316.6,103.2z"/>
		<path class="st1" d="M354.2,199.3c-3.1,1.5-2.9-1.2-3.2-2.8c-0.4-2.8,1.6-2.9,3.6-2.6C354.6,195.7,355.1,197.6,354.2,199.3z"/>
		<path class="st1" d="M237.9,60.1c0.4-0.1,0.8-0.3,1.2-0.4c0.2,0.1,0.5,0.2,0.7,0.3c1.2,0.5,3.2-0.7,3.6,1.4c0.3,1.3-1.1,1.2-2,1.2
			C239.8,62.7,237.6,63.1,237.9,60.1z"/>
		<path class="st1" d="M351.5,188.3c1.3-1.3-1.2-5.1,2.9-4.7c1,1.8,0.2,3.4-0.5,5c-0.8,0.1-1.6,0.1-2.4,0.2
			C351.7,188.6,351.6,188.4,351.5,188.3z"/>
		<path class="st1" d="M225.6,58.3c1.3-0.1,2.7-0.3,3.9-0.1c0.9,0.2,2.2,0.6,2.1,1.8c-0.1,1.1-1.3,1.1-2.2,1.4
			C228.2,60.4,225.1,61.5,225.6,58.3z"/>
		<path class="st1" d="M332.5,121.7c-1.5-1-2.7-2.2-3.1-4.1c2.5-1.9,3.7-0.1,4.7,1.7C334.9,120.8,334.5,121.9,332.5,121.7z"/>
		<path class="st1" d="M351.6,216.5c-0.6,0.6-0.3,2.1-1.6,1.9c-1.1-0.2-1.1-1.4-0.9-2.3c0.3-1.7,0.5-3.5,2.9-3.5
			C351.9,213.9,351.8,215.2,351.6,216.5z"/>
		<path class="st1" d="M263.1,64.9c1.4,0.9,3.3,1.8,0.4,3.2c-0.4-0.2-0.7-0.3-1.1-0.6c-1.1-0.7-3.7,0-3.2-2.1
			C259.6,63.7,261.8,65.1,263.1,64.9z"/>
		<path class="st1" d="M255.2,63.3c-1.3,2.1-4.3,2.6-5.6,0.8c-0.4-0.5-0.5-1-0.2-1.4c0.3-0.3,1-0.6,1.4-0.6c1.4,0.2,2.8,0.7,4.3,1
			C255.1,63.1,255.2,63.3,255.2,63.3z"/>
		<path class="st1" d="M313.2,93.8c0,1,0.1,2,0.1,3c-3,0.2-4.4-1.5-5.1-4.1c1.3-0.9,2.4,0,3.6,0.3C312,93.6,312.6,93.8,313.2,93.8z"
			/>
		<path class="st1" d="M353,172.3c-2.1-0.2-2.4-1.9-2.9-3.5c0.1-0.4,0.1-0.9,0.2-1.3c0.4-0.4,0.7-0.7,1.1-1.1
			c0.8,0.1,1.6,0.2,2.4,0.2l0,0C353.5,168.6,354.5,170.7,353,172.3z"/>
		<path class="st1" d="M347.5,155.3c-0.5-1.9-4.6-4.3,0.7-5.5c0.9,1.2,0.7,2.7,1.1,4.1C349.8,155.6,348.5,155.3,347.5,155.3z"/>
		<path class="st1" d="M347.9,231c-0.8,1-0.9,2.7-2.6,2.8c-0.2,0-0.7-0.5-0.8-0.7c-0.1-1.4,0.6-2.6,1.4-3.7c0.5-0.8,1.4-0.7,2.2-0.7
			C348,229.4,347.9,230.2,347.9,231z"/>
		<path class="st1" d="M340.7,129.7c-3.8,0.6-4.7-2.1-5.5-4.9c0.8,0,1.6,0,2.4,0.1c1,1.4,2,2.9,3,4.3
			C340.7,129.3,340.7,129.5,340.7,129.7z"/>
		<path class="st1" d="M350.3,223.8c-1,0.7-1.2,2.9-2.8,1.9c-0.9-0.6-0.3-2.3,0.2-3.3c0.8-2,2-1,3.1-0.2
			C350.6,222.7,350.4,223.3,350.3,223.8z"/>
		<path class="st1" d="M279.4,73.4c0.6,0,1.1,0,1.7,0c0.4,0.3,0.9,0.6,1.3,0.9c0.9,0.7,2.5,0.5,2.5,2.1c0,0.4-0.6,0.9-1.1,1
			c-1.4,0.6-2.5-0.2-3.5-1.1C279.5,75.4,279.4,74.5,279.4,73.4z"/>
		<path class="st1" d="M354.8,177.9c-0.7,0.7-0.7,2.8-2.3,1.6c-1.1-0.8-1.2-2.4-0.4-3.6c1.2-1.8,1.9,0,2.7,0.6
			C354.8,176.9,354.8,177.4,354.8,177.9z"/>
		<path class="st1" d="M340.5,245.5c-0.6,1.6-1,3.4-3,3.9c-0.6,0.1-1.2-0.5-0.9-1c0.8-1.8,1.3-3.9,4-3.7
			C340.6,244.9,340.6,245.2,340.5,245.5z"/>
		<path class="st1" d="M349.8,162.8c-0.7-1.2-1.1-2.4-1.1-3.8c0.6-0.7,1.2-1.7,1.9-0.1C351,160.3,352.8,162,349.8,162.8z"/>
		<path class="st1" d="M341.2,138.3c-0.6-1.5-2.2-2.9-0.3-4.6c2,1.1,2.9,2.6,2.2,4.9C342.4,139,341.7,139.1,341.2,138.3z"/>
		<path class="st1" d="M353.7,207c-0.3-0.2-0.5-0.3-0.8-0.5c0.3-0.1,0.6-0.2,1-0.2C353.8,206.5,353.8,206.7,353.7,207z"/>
		<path class="st1" d="M273.9,86.3c-0.2,0.2-0.3,0.3-0.5,0.5c-0.1-0.1-0.1-0.3-0.2-0.4C273.4,86.4,273.7,86.3,273.9,86.3
			C273.9,86.3,273.9,86.3,273.9,86.3z"/>
		<path class="st1" d="M256.3,62.3c-0.4,0.3-0.7,0.6-1.1,0.9c0,0-0.1-0.1-0.1-0.1c0.3-0.4,0.6-0.8,0.9-1.2
			C256.1,62.1,256.2,62.2,256.3,62.3z"/>
		<path class="st1" d="M353.7,166.7C353.7,166.7,353.8,166.8,353.7,166.7C353.8,166.8,353.7,166.7,353.7,166.7z"/>
		<path class="st1" d="M237,296.2c0.9,3.7-3.1,7.1-2.2,11.5c0.1,0.6-0.7,1.1-1.4,1.1c-0.8,0-1.5-0.6-1.2-1.2c1.8-4,0.1-8.7,2.4-12.6
			c0.5-0.8,0.6-2,1.9-1.5C237.5,293.9,237.3,294.8,237,296.2z"/>
		<path class="st1" d="M301.7,290.9c-0.8,0.1-1.6,0.1-2.5,0.2c0,0-0.1,0-0.1,0c0.1-0.8,0.1-1.7,0.2-2.5c1-1.5,2.5-2.1,4.3-1.7
			c0.1,0.5,0.1,0.9,0.2,1.4C303.1,289,302.4,290,301.7,290.9z"/>
		<path class="st1" d="M255,308c0.5,0,1.1-0.2,1.6-0.1c1.3,0.2,3.4-0.7,3.6,1.2c0.2,1.6-1.7,1.1-2.7,1.4c-2.1,0.8-3,0-2.8-2.2
			C254.8,308.2,255,308.1,255,308z"/>
		<path class="st1" d="M308.2,281.3c2.3-0.1,3.2,0.7,1.5,2.7c-1.1,1.3-2.5,1.9-4.3,1.5C305.2,283.3,307.2,282.6,308.2,281.3z"/>
		<path class="st1" d="M247.4,310.5c1,0.2,2.7-0.3,2.7,1.1c0,2-2.2,2-3.6,2.5c-1.5,0.5-1.9-0.9-2-1.9
			C244.4,310,246.2,310.8,247.4,310.5z"/>
		<path class="st1" d="M295.6,293c-0.1,0.3-0.1,0.5-0.2,0.8c-0.9,2-2.9,3.3-4.5,2.1c-2.1-1.6,1.3-2.2,1.5-3.6
			C293.6,292.1,294.8,292,295.6,293z"/>
		<path class="st1" d="M343.8,240.4c-0.8,0.2-1.7,1.5-2.4,0.4c-0.9-1.4,0.5-2.4,1.1-3.6c0.3-0.6,0.9-1.4,1.5-0.8
			C345.7,237.7,343.7,239,343.8,240.4C343.9,240.4,343.8,240.4,343.8,240.4z"/>
		<path class="st1" d="M335,251.6c0.8-0.2,1.3,0.1,1.2,0.7c-0.2,1.8-0.8,3.6-2.8,4.4c-0.7,0.3-1.4-0.5-1.2-1.1
			C332.6,253.8,333.8,252.6,335,251.6z"/>
		<path class="st1" d="M239.7,292.2c0.6-0.7,1.2-0.4,1.9-0.1c0.6,1,1.1,2.1,1.7,3.1c0.2,0.6,0.3,1.3,0.5,1.9
			c-0.4,0.6-0.7,1.7-1.2,1.8c-1.1,0.2-1-1-1-1.7C241.5,295.4,238.5,294.6,239.7,292.2z"/>
		<path class="st1" d="M267.6,308.6c-1.5-0.4-3.7,0-3.3-2.7c0.2-0.1,0.4-0.1,0.6-0.2c0.9-0.4,1.8-0.7,2.8-1.1
			C271.4,306,269.4,307.3,267.6,308.6z"/>
		<path class="st1" d="M272.1,303.4c1.1-0.4,2.2-0.9,3.4-1.2c1-0.3,2.3-1,2.7,0.5c0.4,1.3-1.1,1.6-2.1,1.9c-1,0.4-2.1,0.4-3.1,0.6
			C272.7,304.6,272.4,304,272.1,303.4z"/>
		<path class="st1" d="M330.1,260.1c0.9,0.2,1.2,0.8,0.9,1.4c-0.7,1.4-1.5,2.8-3.3,3c-0.6,0.1-1.2-0.5-0.9-0.9
			C327.6,262.3,328.4,260.7,330.1,260.1z"/>
		<path class="st1" d="M324.4,269c-0.5,1.4-1.2,2.8-3.1,2.9c-0.7,0.1-1.5-0.4-1.1-1.2c0.7-1.4,1.6-2.8,3.3-3.3
			C324.3,267.2,324.5,268.1,324.4,269z"/>
		<path class="st1" d="M313.6,276.3c0.7-0.3,1.4-0.6,2.1-1c0.7-0.4,1.3-0.6,1.6,0.3c0.2,0.4,0,1.2-0.3,1.4c-1.1,0.8-2.1,2.6-3.6,2
			C311.9,278.4,313.8,277.2,313.6,276.3z"/>
		<path class="st1" d="M243.8,297.2c-0.2-0.6-0.3-1.3-0.5-1.9c1.3,0.2,2.9-2.4,3.6-0.6C247.7,296.8,244.7,296.1,243.8,297.2z"/>
		<path class="st1" d="M236.4,287.3c1.3,0.1,2.4-1.2,4.2-0.2c-1.1,1-2.1,1.9-3.1,2.8C236.7,289.3,236.6,288.3,236.4,287.3z"/>
		<path class="st1" d="M299.4,288.5c-0.1,0.8-0.1,1.7-0.2,2.5c-0.9,0.1-1.6-0.2-1.6-1.2C297.6,288.7,298.3,288.4,299.4,288.5z"/>
		<path class="st1" d="M319.1,281.3c0.1,0.1,0.2,0.1,0.3,0.2c-0.1,0.2-0.3,0.3-0.4,0.5c0,0-0.2-0.1-0.3-0.2
			C318.8,281.7,319,281.5,319.1,281.3z"/>
		<polygon class="st1" points="312.6,283.8 312.6,283.6 312.8,283.7 		"/>
		<path class="st1" d="M353.8,202.9c-0.3,0-0.5-0.1-0.7-0.1C353.3,202.9,353.6,202.9,353.8,202.9z"/>
		<path class="st1" d="M213.5,431.1c3.3,2.5,6.8,4.7,9.3,8.1c0.5,0.8,1.9,2-0.2,2.2c-3.2,0.3-1.6,1.7-0.8,2.7
			c0.7,0.9,1.8,1.6,2.6,2.5c0.9,1,4.1,0.8,2.5,2.9c-0.8,1.2-2.1,4-5.6,1.6c-2.8-1.9-6.5-2.1-7.1-6.3c2.5-3,0.5-6.1,0.1-9.1
			C214.1,434.2,213.1,432.8,213.5,431.1z"/>
		<path class="st1" d="M223.8,414.4c0.2,2.2,1,4.2-2.5,5c-1.6,0.4-1.2,3.5-1.4,5.5c-0.2,1.6-0.9,3.2-2.5,3.8
			c-1.4,0.5-2.1-0.8-2.7-1.8c2.1-2.4,3.6-5.1,3.5-8.4c0-0.3,0-0.5,0-0.8c0-1.8-0.4-3.9,1.4-5.2C221.9,410.9,222.2,414.2,223.8,414.4
			z"/>
		<path class="st1" d="M222.7,402.3c0.2,0.5,0.4,1,0.5,1.4c-0.4-0.1-1.1-0.2-1.2-0.5C221.7,402.8,222.2,402.5,222.7,402.3z"/>
		<path class="st1" d="M476.2,562.4c1.1,0.1,2.3,0,2.4,1.5c0,1.5-1.2,1.6-2.3,1.6c-1,0-2.4,0.1-2.4-1.4
			C473.9,562.7,475.1,562.5,476.2,562.4z"/>
		<path class="st1" d="M-60.9,553.8c-0.1-0.2-0.2-0.3-0.3-0.5c0.1-0.1,0.3-0.2,0.3-0.2c0.1,0.1,0.2,0.3,0.4,0.4
			C-60.8,553.7-60.9,553.8-60.9,553.8z"/>
		<path class="st1" d="M225,443.5c0.1-0.2,0.2-0.4,0.3-0.6c0.2,0.1,0.5,0.1,0.6,0.3c0.1,0.1-0.1,0.4-0.2,0.6
			C225.4,443.7,225.2,443.6,225,443.5z"/>
		<polygon class="st1" points="215,465.8 214.8,466 215,465.9 		"/>
		<path class="st1" d="M97.9,92.2c0-0.6,0.1-1.3,0.1-1.9c4,1.6,8.1,3.2,12.1,4.8c0.4,0.1,0.9,0.3,1.3,0.4c1.4,1.6,3.2,2.4,5.2,2.7
			c4.4,2.2,9,4.2,13.2,6.7c7.2,4.4,15.1,6.7,23.1,8.9c2,1.6,4.3,1.4,6.6,1.1c0.7,0.9,1.9,0.9,2.9,1.3c2.8,1.8,6.4,1.6,9.3,3.2
			c1.6,0.5,2.7,2.2,4.7,1.8c0.4,1.1,1.4,1.1,2.3,1.2c0.4,0.6,1,0.7,1.6,0.7c0.7,0.8,1.5,0.9,2.5,0.7c2.5,0.4,4.2,3,7.1,2.2
			c0.2,0.2,0.4,0.4,0.6,0.6c0.4,1.4,1.3,2.4,2.6,2.8c7.7,2.4,13.9,7.5,21,10.9c4,3.5,8.5,6.1,13,8.9c2.6,1.6,5.4,3,6.7,6
			c-0.5,0.1-1,0.2-1.5,0.3c-5.4-3.5-10.9-6.9-16-10.9c-1.9-1.5-3.7-3-6.2-3.6c-2.2-1.1-4.4-2.4-6.7-3.3c-2-0.8-3.8-0.8-2.8,2.4
			c0.7,2.1,1,4.3,1.4,6.5c-0.5,0.6-1,1.1-1.4,1.7c-2.6-3.5-1.8-8.2-4-11.9c-0.2-0.3,0.1-0.9-0.1-1.1c-0.3-0.4-0.6,0-0.9,0.3
			c-1.8,2.2-2.5,0.1-3.1-0.9c-0.7-1.2-0.6-2.9-2.5-3.1c-1,1.1,0.3,2,0.1,3c-1.2,0-2.1,0.4-2.5,1.7l-0.1,0.1
			c-0.5-0.1-1.1-0.2-1.6-0.3c-0.2-0.9,0-1.8-0.9-2.4c-1.5-2.1-3.5-3.6-5.9-3.5c-1.8,0.1-1.3,2.3-1.5,3.7c-2.2-0.6-2.4-2.3-2.3-4.1
			c0-0.1,0.1-0.2,0.1-0.3c0,0.1-0.1,0.2-0.1,0.3c-2.3,0-1.4-2.5-2.7-3.4c-1.1-0.7-1.7-2.9-3.4-1.7c-1.7,1.1,0.7,1.9,0.7,2.9
			c0,0.4,0,0.8,0,1.2c-1.1,0-2.1,0.1-3.2,0.1c-0.9-3.3-3.3-0.2-4.8-1.1c-0.1-1.5-0.8-2.3-2.4-2.3l-0.1-0.1c-0.2-0.6-0.4-1.6-0.7-1.7
			c-1.2-0.2-1,1-1.2,1.7c-0.2,0.2-0.4,0.5-0.6,0.7l-0.1,0c-0.6-0.6-0.9-1.3-0.8-2.1c0.7-0.8,1.7-2-0.2-1.9c-1.1,0.1-1.9,0.1-2.8-0.5
			c-5.8-3.7-10.9-8.7-17.8-10.5c-1.4,0.1-2.4-0.6-3.6-1.1c-7.7-3.4-13.9-9.7-22.3-11.7c-0.9-1.6-2.5-1.6-4-1.6
			C103.2,94.6,99.3,95.4,97.9,92.2z"/>
		<path class="st1" d="M201,248.6c0.3-0.2,0.6-0.3,0.9-0.5c2.8-0.6,4.5-2.4,3.8-5c-0.7-2.4-2.8-1.8-4.5-0.6c-0.7,0.1-1.3,0.2-2,0.3
			c-0.3-0.3-0.6-0.7-0.9-1c1.7-2.4,1.7-4.9,0.3-7.4c0.1-0.3,0.3-0.7,0.4-1c0.7-1.3,2.1-2.3,2.2-3.9l0,0c2.4-0.3,4.1-1.8,5.9-3.2
			c0.9-0.7,1.6-2.3,3.3-0.9c1.7,1.3,1.4,2.3,0.6,3.9c-0.5,0.9-0.6,2-1.7,2.6c-1.2-0.8,0-1.6-0.1-2.4c-0.1-1.1-0.9-1.6-1.5-0.8
			c-1.4,1.7-1.3,3.9-0.5,5.6c0.8,1.6,2.3,0.1,3.5-0.1c1.1-0.2,1.8-3.3,3.1-0.9c0.9,1.5,0.5,3.5-2.3,3c-0.5-0.1-1.1,0.8-0.5,1
			c2.4,0.7-2.4,5.1,2.3,4.3c0,0,0,0,0,0c0.1,1,0.1,2,0.2,3.1c-2.4-0.7-4.5-1-4.2,2.7c0,0,0-0.1,0-0.1c-8.1,5.1-14.1,12.2-19.1,20.2
			c-0.5,0.9-0.3,2.3-2.3,1.9c-1.7-0.3-2.7,1.4-3.7,2.7c-0.6,0.5-1.1,1.1-1.7,1.6c-1.3,1.7-3.3,2.8-4,4.9c-1.7,1.4-3.5,2.8-5.2,4.2
			c-1.3,1-2.3,1.4-1.9-0.9c0.7-0.3,1-0.8,1.1-1.4c0-0.8-0.1-1.6-0.1-2.4c2.9,0.1,4.7-2.1,6.4-3.8c6.1-6.2,11.9-12.7,17.9-19.1
			c1.3-1.4,2.1-3.1,3-4.7C200.7,250.2,201.4,249.8,201,248.6z"/>
		<path class="st1" d="M182,216.2c0,1.1,0.9,1.3,1.7,1.7c-0.3,0.7-0.9,1-1.7,1.1c-0.7,0-1.4-0.1-2-0.1c-1.3,0.2-2.6,0.4-3.9,0.6
			c-0.5,0.2-0.9,0.4-1.4,0.5c-0.9,0-1.8,0-2.7,0.1c-2.1,0.1-4.2-0.1-6.3,0.7c-2.3-0.2-4.2,1.9-6.6,1.1c-0.5,0.1-1.1,0.2-1.6,0.3
			c-1.7,0-3.3,0-4.7,1.1c-7,1-14,2-21,3c-2.8,0-5.5,0.4-8.2,1.2c-1.3,0.2-2.5,0.4-3.8,0.6c-4.5,0.7-8.9,1.4-13.4,2
			c-1.1,0.2-2.8,1-3.1-0.5c-0.4-1.8,1.6-1.7,2.8-2c3.7-1.1,7.7-0.6,11.3-2.2c0.8,0,1.5-0.1,2.3-0.1c3.2-0.5,6.9,0.6,9.3-2.6
			c0.7,0,1.4,0,2-0.1c4.2,2,8-0.9,12.1-1c1.2,0,2.4,0.1,3.5-0.6c3.2,0.1,6.3-0.7,9.4-1.4c2.7-0.6,5.3-1.2,8-1.8
			c0.6,0.1,1.2,0.1,1.8,0.2c0.8-0.3,1.5-0.5,2.3-0.8c1.6,0.5,3.1,0.3,4.7-0.1C175.8,216.4,178.8,215.3,182,216.2z"/>
		<path class="st1" d="M144.7,283.2c5.9-4.6,11.9-9.1,17.8-13.7c0.4-0.3,0.4-0.9,0.7-1.4c0.3-0.3,0.6-0.7,0.9-1
			c3.7-1.9,6.4-5.1,9.8-7.5c3.2-2.9,7.2-4.8,9.8-8.4c1.6,0,1.6-1.6,2.4-2.4c2.4,0.1,4.5-0.9,5-3.1c0.6-2.5-3-1-3.6-2.8
			c0.3-0.5,0.5-0.9,0.8-1.4c3.2,1.6,6.3,2.9,9.2-0.4c0.3,0.2,0.6,0.4,0.8,0.6c0.3,0.3,0.6,0.7,0.9,1c-4.9,5.4-11.6,8.5-17,13.3
			c-5.9,5.2-12.1,10.1-18.1,15.1c0,0,0,0,0,0c-1.9,1.6-3.8,3.1-5.7,4.7c0,0-0.1,0-0.1,0c-1,0.1-1.7,0.7-2.3,1.5
			c-3.8,3-7.5,6-11.3,8.9c-1,0.8-2.3,2.8-3.6,1c-1-1.5,1.1-2,2-2.9C143.7,284,144.2,283.6,144.7,283.2z"/>
		<path class="st1" d="M190,222.2c2.5,1.4,4.9,3.1,7.3-0.5c0.5-0.8,2-1.7,3.7-1.4c-0.5,5.7-5.9,4.7-8.9,6.7
			c-0.6-0.1-1.8-0.1-1.9-0.2c-0.7-4-3.1-1.8-4.9-1.2c-1.2,0.4-2.2,1.3-3.3,2c-7,1.7-13.3,5.4-20.2,7.4c-8.2,3.6-16.8,5.8-25.2,8.9
			c-0.7,0.3-1.7,1.5-2.2-0.1c-0.4-1.1,0.8-1.5,1.7-1.8c4.8-1.8,9.4-3.9,14.3-5.2c5.4-1.5,9.9-5,15.4-6.1c0.7,0.2,1.3,0.1,1.7-0.5
			c0.8-0.5,1.6-1,2.4-1.5c1.1-0.1,2.3,0.1,3.2-0.9c0.6-0.2,1.2-0.4,1.7-0.6c1.2-0.3,2.3-0.7,3.2-1.7l0,0c1.8-0.8,3.9-0.4,5.5-1.8
			c2.5-0.4,1.9-2.9,2.5-4.6C187.7,219.9,187.6,222.7,190,222.2z"/>
		<path class="st1" d="M181.8,233.3c0,0.8,0.1,1.5,0.1,2.3c0,0.3,0,0.6,0,1c-1.1,0.2-2.6,0.3-2.5,1.4c0.2,1.7,2.3,1.4,3.4,2.3
			c0.3,2.4-1.5,2.6-3.1,2.9c-1.8-1.9-3.6-4.4-6.6-2.9c-4.2,2.1-8.4,4.4-11.7,7.9c-0.4,0.1-0.9,0.3-1.3,0.4c-0.8,0.1-1.7,0.1-2.2,1
			c-2,1-4.2,1.8-6.1,2.9c-2.4,1.4-4.7,2.7-6.9,4.8c-1.4,1.4-4.9,1.7-7,3.8c-1.4,1.4-3.8,1.6-5.6,2.7c-1.3,0.8-3.3,2.1-4.1,0.4
			c-0.7-1.7,1.4-2.5,3.1-2.8c0.9,0.1,1.5-0.2,1.9-1c0.2,0,0.3,0,0.3-0.2c1.7-0.6,3.2-1.4,3.9-3.2c4.2-2.3,8.4-4.5,12.5-6.8
			c1.2,0,1.9-0.6,2.6-1.5c0.2,0,0.4-0.1,0.6-0.1c1.8,0,3.1-1,4-2.4c0,0,0,0,0,0c0.7-0.1,1.4,0,1.9-0.3
			C166.1,241.2,174.2,237.6,181.8,233.3z"/>
		<path class="st1" d="M136.2,188.9c-1.5-0.4-2.9-0.9-4.4-1.3c-4.5-1.6-8.9-3.2-13.6-4.1c-0.3-0.1-0.6-0.3-1-0.4
			c-0.5-1-3.4-0.3-1.9-2.7c-0.1-0.2,0-0.3,0.2-0.4c0.6,0.2,1.2,0.3,1.8,0.5c0.8,0.3,1.6,0.6,2.4,0.9c1.5,1.2,3.1,1.5,5,1.2
			c0.5,0.1,1,0.2,1.5,0.3c0.7,1.2,2,1.2,3.1,1.5c5.5,1.5,11.1,2.8,16.6,4.4c8.9,2.6,17.8,5.4,26.7,8.1c0,0,0-0.1,0-0.1
			c0.7,0.3,1.3,0.5,2,0.8c0.3,0.2,0.7,0.3,1,0.5c0,0.2-0.1,0.3-0.1,0.5c-0.1,0.5-0.1,0.9-0.2,1.4c-2.1-0.3-4.2-0.6-6.3-1
			c-9.1-3.7-18.5-6.6-28-9c-0.6-0.1-1.3,0.2-2,0.3c-0.5-0.1-0.9-0.2-1.4-0.3C137.5,189.1,137,188.8,136.2,188.9z"/>
		<path class="st1" d="M198.9,270.5c-1.2,0.8,0.7,4.8-3.1,2.9c-0.1,0-0.2,0.1-0.3,0.2c-4,6.2-9.9,10.9-12.9,17.8
			c-3.7,2.2-5.7,6.2-8.9,8.9c-0.7,0.6-1.4,1.8-2.3,1.1c-1.2-0.9,0-1.8,0.5-2.7c1.2-2,3.3-3.4,4.1-5.7c0.4-0.5,0.7-0.9,1.1-1.4
			c0,0,0.1,0,0.1,0c3.8-3,7.3-6.1,8.7-11c1-0.2,1.6-0.9,1.9-1.8c2.9-2.8,5.3-6.1,7.3-9.6c0,0,0,0,0,0c2.1-0.3,3.5-2.1,3.9-3.5
			c0.8-3,3.2-4,5.2-5.7c0,0.5,0.1,0.9,0.1,1.4c0.2,1.1-0.7,1.7-1,2.6C202.1,266.1,199.6,267.7,198.9,270.5z"/>
		<path class="st1" d="M218.2,280.1c-0.3-3.3,2.6-4.9,4.1-7.2c0.6,0.3,1.2,0.7,1.8,1c-1.4,3.4-2.7,6.8-4.1,10.2
			c-0.7,0.7-0.9,1.5-0.9,2.5c-0.4,0.8-0.9,1.6-1.3,2.4c-1.3,2.8-2.6,5.7-3.9,8.5c-0.3,1.2-0.5,2.3-0.8,3.5c-1.1,0.5-1.4,1.1-0.1,1.8
			c0.2,0.8,0.2,1.6-0.5,2.2c-1.5,0.1-2.2,1-2.4,2.4c-2,1.5-2.5,0.1-2.5-1.5c0-1.1,0.5-2.2,0.8-3.3c2.1-0.5,1.5-2.4,1.8-3.7
			c0.9-1,1.4-2.2,1.6-3.5c0.3-0.7,0.6-1.4,1-2.1c0.3-1.1,0.6-2.2,0.9-3.3c1.5-1.3,2.3-2.9,1.7-4.9c-0.2-0.9-0.5-1.9,0.1-2.8
			C217.1,282.4,218,281.7,218.2,280.1z"/>
		<path class="st1" d="M112.4,179c0.3,0.2,0.7,0.4,1,0.6c0,0.6,0.2,0.8,0.8,0.6c0.4,0.1,0.8,0.1,1.2,0.2c0,1.7-1.2,1.2-2,1
			c-7.9-1.4-15.5-3.6-23.1-6.5C98,174.7,104.8,178.7,112.4,179z"/>
		<path class="st1" d="M160.1,256.4c0.2,0,0.4,0.1,0.6,0.2c0.4,0.4,0.8,0.8,1.2,1.2c-0.6,1.6-2,2.6-3.4,3.3
			c-3.3,1.6-6.2,3.5-9.1,5.7c-1.1,0.9-2.6,2.7-4.6,1.3C149,263,155.1,260.4,160.1,256.4z"/>
		<path class="st1" d="M114.6,275.4c0,1.3-1,1.6-1.6,1.2c-1.5-0.7-4.2,0.3-4.1-2.6c0-1.2,0.7-2.6,2.1-2.4
			C112.9,272,113.5,274.1,114.6,275.4z"/>
		<path class="st1" d="M97.1,114.1c-0.9,1.6-1.1,3.9-3.2,4.6c-0.8,0.3-1.7-0.7-1.4-1.4c0.9-1.8,1.2-4.2,3.7-4.7
			C97,112.4,97.1,113.4,97.1,114.1z"/>
		<path class="st1" d="M87.9,123.7c0.8-1.1,1.5-2.6,3.1-1.4c1.4,1.1-0.1,2.1-0.6,3.1c-0.7,1.3-1.5,2.8-3.4,1.6
			C86.8,125.8,87.5,124.8,87.9,123.7z"/>
		<path class="st1" d="M75.3,194.7c-1,0-2,0-3-0.1c0-1.1-0.8-1.4-1.7-1.4c0.6-1,1.2-2,1.8-3c1.6-1.5,2.8-1.6,3,1
			C75.5,192.4,75.3,193.5,75.3,194.7z"/>
		<path class="st1" d="M86.8,239.1c-3.6,0.3-3.5-2.8-4.7-4.8c0.1-0.5,0.2-1,0.3-1.5c3.2,0,3.6,2.7,4.7,4.7
			C87,238,86.9,238.6,86.8,239.1z"/>
		<path class="st1" d="M102.5,261.2c-0.2,1.2-1.1,1.2-1.8,1c-1.5-0.3-3.2-0.7-3.3-2.7c0-0.7,0.5-1.8,1.4-1.5
			C100.4,258.5,101.8,259.5,102.5,261.2z"/>
		<path class="st1" d="M73.2,186.4c-1.5-0.4-1.5-1.5-1.4-2.5c0.2-1.4,0.3-3.1,2.4-2.9c0.7,0.1,1.6,0.1,1.9,1
			C73.9,182.5,75.4,185.8,73.2,186.4z"/>
		<path class="st1" d="M170,310.1c-1.3-0.8-3.3-1.2-3.6-3.1c-0.1-0.8,1-1.2,1.8-0.9c1.4,0.5,3.5,0.1,3.6,2.3
			C171.9,309.3,171.4,310.3,170,310.1z"/>
		<path class="st1" d="M128.6,287.8c-0.1,0.9-0.3,1.9-1.1,1.5c-1.5-0.7-3.5-1.1-3.7-3.2c-0.1-1.1,0.5-2,1.6-1.7
			C127.3,284.7,128.2,286.2,128.6,287.8z"/>
		<path class="st1" d="M207.4,317.2c-1.5,0.8-3,0.2-3-1.4c0-1.8,2-1.2,3.1-1.2c1.1,0,2.6-0.1,2.5,1.7
			C210,318.2,208.8,317.8,207.4,317.2z"/>
		<path class="st1" d="M77.2,220.5c0-0.3-0.1-0.5-0.1-0.8c-0.4-1.4-1.5-3,0.6-3.7c1.5-0.5,1.8,1.2,2.2,2.3c0.6,2.1,0,3.1-2.4,2.7
			C77.3,220.8,77.2,220.6,77.2,220.5z"/>
		<path class="st1" d="M151.5,298c0.2,2.1,2.4,2,2.7,3.4c0.2,1.1-0.8,1.2-1.5,1.2c-1.6,0-3-0.5-3.3-2.2
			C149.1,299,151.2,299.6,151.5,298z"/>
		<path class="st1" d="M200.5,314.2c-0.5,1.3-1.5,2-2.7,2.1c-1.5,0.2-3-0.4-3.5-2c-0.4-1.4,1-1.4,1.8-1.3
			C197.6,313.2,199.4,312.5,200.5,314.2z"/>
		<path class="st1" d="M105,265.8c1.6,0.7,2.5,2.1,3.2,3.6c0.3,0.6-0.7,1.1-1.4,0.9c-1.7-0.3-2.8-1.5-3.3-3
			C103.2,266.5,104,266,105,265.8z"/>
		<path class="st1" d="M85.9,135.4c-1.3,0.1-2.5-0.1-2.4-1.8c0.1-1.4,0.4-2.9,1.8-3.7c1-0.5,1.9-0.2,1.8,1.1c0,1.2-0.4,2.3-0.6,3.5
			C86.3,134.8,86.1,135.1,85.9,135.4z"/>
		<path class="st1" d="M77.1,212.1c-2.3-1.8-3.2-3.8-0.8-6.2C78.6,207.7,79.8,209.6,77.1,212.1z"/>
		<path class="st1" d="M75.4,202.9c-3.6-2-2.3-3.9,0-5.9C76.7,198.8,76.7,201.3,75.4,202.9z"/>
		<path class="st1" d="M144.7,297.8c-0.2,0.1-0.5,0.2-0.7,0.3c-1.7,0.5-3.1-0.1-4.2-1.4c-0.4-0.4-0.4-1.1,0.1-1.4
			c1.3-0.8,2.5,0.5,3.7,0.4C144.4,296.2,144.7,296.9,144.7,297.8z"/>
		<path class="st1" d="M102.7,107.1c-0.8,1.3-1.3,2.8-2.9,3.1c-0.9,0.1-1.5-0.5-1.3-1.5c0.2-1.6,1.3-2.6,2.8-3
			C102.2,105.4,102.4,106.3,102.7,107.1z"/>
		<path class="st1" d="M94.7,254.7c-1.5-0.4-1.8-1.9-2.1-3.1c-0.2-0.8,0.3-1.7,1.3-1.6c1.7,0.3,2.3,1.7,2.5,3.2
			C96.4,254.2,95.7,254.6,94.7,254.7z"/>
		<path class="st1" d="M75.3,175.4c-0.1,1,0,2.4-1.5,2.4c-1.5,0.1-1.5-1.2-1.6-2.3c-0.1-1.4,0.6-2.4,2-2.4
			C75.6,173.2,75.3,174.5,75.3,175.4z"/>
		<path class="st1" d="M73.9,164.4c0.5-0.1,1-0.1,1.6-0.2c2.4,2.8,1.8,4.5-1.8,5.3c-0.1-1.5-0.1-3-0.2-4.5
			C73.6,164.8,73.7,164.6,73.9,164.4z"/>
		<path class="st1" d="M88.5,246.1c-0.1-1.2-2-2.7-0.2-3.4c2-0.8,2.7,1.5,3.7,2.8C91.2,248.2,89.8,246.6,88.5,246.1z"/>
		<path class="st1" d="M117.5,278.8c0.1,0.1,0.2,0.1,0.3,0.2c1.2,1.1,3,1.7,3.1,3.7c0,0.2-0.7,0.6-0.9,0.5c-1.6-0.9-3.9-1.1-4.1-3.7
			C116.5,279.3,117,279.1,117.5,278.8z"/>
		<path class="st1" d="M181.8,309.9c-1.3,4.5-3.6,1.1-5.6,0.7C177.7,307,180,310.3,181.8,309.9z"/>
		<path class="st1" d="M108.8,98.4c0,0.7,0.1,1.5,0.1,2.2c-0.9,0.4-1.8,0.8-1.9,1.9c-0.9,0.5-1.7,1.6-2.7,0.7
			c-1.1-0.9,0.4-1.6,0.6-2.4c0.2-0.9,0.6-1.8,0.9-2.6C106.8,98.4,107.8,98.4,108.8,98.4z"/>
		<path class="st1" d="M190,313.8c-1.5-0.6-5.2,1.1-3.2-3.1c1,0.3,2,0.6,2.9,0.9C191.5,312.1,191.4,312.9,190,313.8z"/>
		<path class="st1" d="M76.2,161.4c-0.3-2.2-1-4.6,1.7-6C79.4,157.9,79.4,160.1,76.2,161.4z"/>
		<path class="st1" d="M158.9,303.3c1.1,0.2,2.5,0.4,2.8,1.8c0.3,1-0.6,1.4-1.5,1.1c-1-0.4-2.6,0-2.9-1.6
			C157.1,303.6,157.9,303.3,158.9,303.3z"/>
		<path class="st1" d="M76.8,149c0.8-0.7,1.4-1.8,2.7-2c0.3,2.3,0.7,4.5-1.6,6.1c-0.4-0.6-0.8-1.2-1.2-1.7
			C76.7,150.6,76.8,149.8,76.8,149z"/>
		<path class="st1" d="M81.1,143.8c-0.4-0.4-0.8-0.9-1.2-1.3c0-1.6,0.5-3,1.8-4c0.6,0.3,1.3,0.5,1.9,0.8
			C82.7,140.8,83.2,143.1,81.1,143.8z"/>
		<path class="st1" d="M136.4,291.6c-1.7,4.1-3,0-4.5-0.2C133.5,289.6,134.9,291.4,136.4,291.6z"/>
		<path class="st1" d="M83.6,139.3c-0.6-0.3-1.3-0.5-1.9-0.8c0.3-0.7,0.6-1.5,1.6-1.1C84,137.9,84.2,138.6,83.6,139.3z"/>
		<path class="st1" d="M117.5,278.8c-0.5,0.2-1,0.5-1.5,0.7c-0.1-0.7-0.5-1.7,0.5-2C117.3,277.3,117.3,278.2,117.5,278.8z"/>
		<path class="st1" d="M167.4,230.2c-0.5,0.6-1,0.7-1.7,0.5C166,229.8,166.5,229.4,167.4,230.2z"/>
		<path class="st1" d="M169.1,210.8c-0.3,0.2-0.7,0.3-1,0.5c-0.4-0.5-0.8-1-1.1-1.5C168,209.4,168.8,209.6,169.1,210.8z"/>
		<path class="st1" d="M165.8,218c-0.6-0.1-1.2-0.1-1.8-0.2C164.8,216.5,165.4,216.7,165.8,218z"/>
		<path class="st1" d="M85.9,135.4c0.2-0.3,0.4-0.6,0.7-0.9c0.3,0.6,0.7,1.1,1,1.7c0,0,0,0,0,0C87,135.9,86.4,135.7,85.9,135.4z"/>
		<path class="st1" d="M124.6,109.6c-0.2,0.1-0.4,0.3-0.6,0.4C123.8,109.4,124.4,109.8,124.6,109.6L124.6,109.6z"/>
		<path class="st1" d="M172.6,280.3c-0.1,0.7-0.4,1.2-1.1,1.4C171.6,281.1,171.9,280.6,172.6,280.3z"/>
		<polygon class="st1" points="124.6,109.6 124.7,109.4 124.6,109.6 		"/>
		<path class="st1" d="M153.6,215c-0.1-0.1-0.1-0.2-0.2-0.2c0.1,0,0.3,0,0.4,0C153.8,214.8,153.6,215,153.6,215z"/>
		<path class="st1" d="M162.6,166.7c0-0.2,0-0.5,0-0.7c0.1-0.3,0.3-0.7,0.4-1c-0.2,0-0.4-0.1-0.7-0.1c-1.4-1.4-2.3-3.4-4.4-4
			c0,0-0.1,0-0.1,0c-5.3-4.9-10.3-10-16.2-14.2c-2.4-1.7-5-3.7-6.9-5.8c-3.1-3.3-6.3-6.5-9.8-9.6c-2.6-2.3-5.9-4.1-6.7-7.9
			c2.3-0.6,3.6,1.7,5.5,2c2.5,4.3,6.6,7,10.2,10.1c10.4,8.8,20.4,18.1,30.2,27.5c0,1.1,0,2.2,0,3.3
			C163.7,166.4,163.2,166.5,162.6,166.7z"/>
		<path class="st1" d="M221.4,214.6c0.2-0.5,0.4-1.2,0.8-1.3c1.1-0.4,1,0.5,0.8,1.1c-1,3.3,0.6,3.9,3.4,3.1c1.6-0.4,2.8,0.6,4.3,0.8
			c0.5,0.1,0.9,0.3,0.8,1.1c-0.3,2.4-0.2,2.6,2.1,2.7c2,0.1,3.4,1.6,5.2,2c1,0.2,7.2,3.5,7.8,4c-3.6,2.1-6.5,1-9.8-1.2
			c-3-2-6.4-3.6-9.9-4.6C222.7,221,220.7,218.9,221.4,214.6z"/>
		<path class="st1" d="M228.1,227.5c4.7,0.8,8.9,3.7,13.8,3.8c0.8,0,1.2,0.5,1.1,1.3c-0.1,1.2-1.1,1.4-2,1.5
			c-3.6,0.3-7.2,0.4-10.8-0.1c0-2,1.2-4.4-2.1-5C228,229,228.1,228,228.1,227.5z"/>
		<path class="st1" d="M213.1,208.4c0.2,5.7,1.9,11.2,2.9,16.8c-0.2,0.2-0.5,0.5-0.7,0.7c-2-2-4.8-3.3-5.2-6.5
			c2.3-2.8,1.2-5.6-0.1-8.4C210.3,209.3,211.3,208.4,213.1,208.4z"/>
		<path class="st1" d="M218.6,201.9c-1.6,2.5,0.9,3.4,1.9,4.9c-0.3,0.6-0.5,1.1-0.8,1.7c-0.1,1.9,0.7,3.8,0.1,5.6
			c0.3,1.5,1.3,3.2-1.3,3.8c-0.4-3.7-3.4-6.8-2.5-10.8C216.5,205.2,215.3,202.4,218.6,201.9z"/>
		<path class="st1" d="M215.8,239.1c0-0.1,0.1-0.3,0-0.4c-0.1-2.4,1.4-4,3-5.4c2.1-2,2.5,2.7,4.8,1.1c-2.6,2.7-3.5,6.5-7.1,8l0,0
			C216.4,241.2,216.8,240,215.8,239.1L215.8,239.1z"/>
		<path class="st1" d="M219.8,226.6c-2-1-1.3-3.1-1.6-5.2c3,1.8,6.1,3.6,9.1,5.5c-2.5-0.1-4.8,0.1-4.4,3.6c-1.8,0.1-3.1-0.4-3.3-2.4
			C220.2,227.6,220.1,227.1,219.8,226.6z M222,226.2c0-0.1-0.1-0.2-0.1-0.2c-0.1,0.1-0.2,0.1-0.2,0.2c0,0.1,0.1,0.2,0.1,0.2
			C221.9,226.4,222,226.3,222,226.2z"/>
		<path class="st1" d="M213.1,208.4c-1.8-0.1-2.8,0.9-3.2,2.6c-0.9,0-1.7,0-2.6,0c-0.8-2.6,0.4-4.8,1.4-7c0.4-0.9,1.1-2,2.3-0.6
			c-0.3,1.7,0.5,2.5,2.1,2.7C213.2,206.9,213.2,207.7,213.1,208.4z"/>
		<path class="st1" d="M222.9,230.4c-0.4-3.4,1.9-3.6,4.4-3.6c0.3,0.2,0.6,0.4,0.8,0.7c0,0.5-0.1,1.4,0,1.5c3.3,0.6,2.2,3.1,2.1,5
			C227.5,233.5,225.1,232.1,222.9,230.4z"/>
		<path class="st1" d="M240.5,251.2c-2,0.1-2.1,1.5-2.2,3c-0.2,2.1-1.3,3-3.5,2.2c0.2-0.5,0.6-1,0.6-1.5c-0.6-6-0.6-6.1,4.9-5.9
			C242.4,249.1,241.8,250.3,240.5,251.2z"/>
		<path class="st1" d="M207.4,211c0.9,0,1.7,0,2.6,0c1.3,2.8,2.4,5.6,0.1,8.4c0,0-0.3,0-0.3,0s-0.2-0.2-0.2-0.2c0.5-1,0.3-1.7-0.8-2
			C207.3,215.4,206.6,213.3,207.4,211z"/>
		<path class="st1" d="M219.5,259.1c0.8,0.7,2,1.2,2.3,2.1c0.4,1.3,1.4,3.3-0.8,4.1c-2.2,0.7-1.8-1.3-2.1-2.4
			c-0.2-0.8-0.8-1-1.4-1.1C217.7,260.5,218.5,259.7,219.5,259.1z"/>
		<path class="st1" d="M209.4,247.2c-0.4-3.6,1.7-3.4,4.2-2.7c0.2,0,0.4,0.1,0.6,0.2l0,0C214.1,248.6,212.3,249,209.4,247.2z"/>
		<path class="st1" d="M223.8,267.9c1.1-1.5-1.9-5.8,3.1-4.8C226.4,265,226.1,267.1,223.8,267.9z"/>
		<path class="st1" d="M232.2,279.6c0.1-2.4-0.6-4.9,0.2-7.3C235.9,274.9,234.1,277.3,232.2,279.6z"/>
		<path class="st1" d="M215.6,200.1c-1.3-3.2-2-5.4-0.4-8.7C216,194.6,216,196.8,215.6,200.1z"/>
		<path class="st1" d="M235.8,240.6c-1.9,2.3-3.4,1-5.4,0.5C232.3,239.1,233.8,239.4,235.8,240.6z"/>
		<path class="st1" d="M235.2,236.2c0.7,0.3,1.7,0.4,1.7,1.4c0,1-0.7,1.4-1.6,1.1c-0.7-0.3-1.8-0.2-1.8-1.2
			C233.5,236.5,234.3,236.1,235.2,236.2z"/>
		<path class="st1" d="M178.5,133.8c1.4,0.5,3.7,0.7,1.8,3.1C177.6,137.1,177.5,135.8,178.5,133.8z"/>
		<path class="st1" d="M213.3,206.1c-1.6-0.2-2.4-1-2.1-2.7c1,0.4,1.7-1.8,2.6-0.4C214.4,203.9,214.5,205.3,213.3,206.1z"/>
		<path class="st1" d="M201.3,229.4c-1.3,0.1-2.5,0-2.2-1.8c0.2-0.8,0.9-1.5,1.8-1.2C202.7,227.1,200.9,228.5,201.3,229.4
			C201.2,229.4,201.3,229.4,201.3,229.4z"/>
		<path class="st1" d="M201,212.1c0,0.6-0.4,1-1,1c-0.6,0-1-0.4-0.9-1c0-0.3,0.4-0.7,0.8-0.8C200.4,211.2,200.9,211.4,201,212.1z"/>
		<path class="st1" d="M232.6,246.9c0-0.7,0.1-1.4,0.1-2.1c0.5-0.7,1.1-0.9,1.4,0C234.5,245.9,234.1,246.9,232.6,246.9z"/>
		<path class="st1" d="M213.4,241.5c0-1.6,1-2.2,2.4-2.4c0,0,0,0,0,0C215.7,240.5,214.9,241.4,213.4,241.5L213.4,241.5z"/>
		<path class="st1" d="M216.6,242.3c0.1,1.7-0.8,2.5-2.4,2.4c0,0,0,0,0,0C214.7,243.6,215.1,242.4,216.6,242.3L216.6,242.3z"/>
		<path class="st1" d="M193.2,149.8c-0.7,0-1.4,0.1-1.8-0.5c-0.3-0.6,0.1-1,0.6-1.2C193.1,148.2,193,149.1,193.2,149.8z"/>
		<path class="st1" d="M229.6,282.6c0.1-1.6,1.2-1.7,2.5-1.6C232,282.6,230.7,282.5,229.6,282.6z"/>
		<path class="st1" d="M152.8,206.6c0.2-0.6,0.4-1.3,1.1-1.2c0.2,0,0.4,0.8,0.5,1.2C153.9,206.7,153.3,206.6,152.8,206.6z"/>
		<path class="st1" d="M191.9,162.6c1,0.2,2.2,0.1,1.3,1.7C192.5,164,191.9,163.5,191.9,162.6z"/>
		<path class="st1" d="M208.1,199c0.2-0.1,0.4-0.4,0.5-0.4c0.2,0.1,0.4,0.3,0.4,0.5c0.1,0.4,0,0.8-0.6,0.5
			C208.3,199.6,208.3,199.3,208.1,199z"/>
		<path class="st1" d="M193,188.6c0.6-0.1,1.2-0.1,1.8-0.2c-0.2,0.4-0.3,1.1-0.5,1.2C193.5,189.9,193.3,189.1,193,188.6z"/>
		<path class="st1" d="M224.7,200.1c0-0.4,0-0.8,0-1.2c0.5-0.3,1-0.6,1.5-0.9C226.5,199.3,225.8,199.8,224.7,200.1z"/>
		<path class="st1" d="M157.6,207.2c0.7-1,1.2-0.9,1.7,0.1C158.8,207.6,158.2,207.6,157.6,207.2z"/>
		<path class="st1" d="M204,208.6c0.2-0.1,0.3-0.3,0.4-0.4c0.1,0.2,0.2,0.3,0.3,0.5c0,0-0.2,0.2-0.2,0.2
			C204.4,208.8,204.2,208.7,204,208.6z"/>
		<path class="st1" d="M208.7,217.3c1.1,0.3,1.3,1,0.8,2C208.7,218.8,208.6,218.1,208.7,217.3z"/>
		<path class="st1" d="M292.8,171.6c0.4,0,0.9-0.1,1.3-0.1l0,0c-0.2,0.5-0.5,1.1-0.7,1.6C292.5,172.9,292.5,172.3,292.8,171.6z"/>
		<path class="st1" d="M171.1,132.1c-0.7,0-1.4,0-2.1,0.1c0.3-0.7,0.6-1.4,0.9-2.1C171,130.3,171.3,131,171.1,132.1z"/>
		<path class="st1" d="M189.6,184.8c-0.2,0.1-0.4,0.2-0.6,0.3c0,0-0.2-0.2-0.2-0.3c0-0.1,0.2-0.3,0.2-0.3
			C189.2,184.6,189.4,184.7,189.6,184.8z"/>
		<path class="st1" d="M216,225.2c0.5,0.3,0.8,0.9,0.4,1.3c-0.6,0.5-0.8-0.1-1.1-0.6C215.5,225.7,215.8,225.5,216,225.2z"/>
		<path class="st1" d="M207.7,222.2c-0.2,0.2-0.3,0.4-0.5,0.5c-0.1-0.1-0.1-0.3-0.2-0.4C207.2,222.3,207.5,222.2,207.7,222.2
			L207.7,222.2z"/>
		<path class="st1" d="M198.7,234.3c-0.3-0.1-0.6-0.2-0.8-0.2c0.4-0.3,0.8-0.5,1.3-0.8C199,233.6,198.8,234,198.7,234.3z"/>
		<path class="st1" d="M219.8,226.6c0.4,0.5,0.4,1-0.1,1.4C219.7,227.5,219.7,227.1,219.8,226.6z"/>
		<polygon class="st1" points="207.7,222.2 207.9,222 207.7,222.2 		"/>
		<path class="st1" d="M293.3,175.6c0,0.2,0,0.5,0,0.7C292.7,176.1,292.7,175.8,293.3,175.6z"/>
		<path class="st1" d="M184.4,239.9c0-0.5,0.2-0.8,0.8-0.8C184.9,239.4,184.7,239.7,184.4,239.9z"/>
		<path class="st1" d="M33.2,75.8c0.5,0.2,0.9,0.3,1.4,0.5c-0.5,0.7-1.2,1.6-2.1,0.9C31.9,76.7,32.6,76.1,33.2,75.8z"/>
		<path class="st1" d="M221,57.7c-0.4,0.8-0.4,1-0.5,1c-1.8,0.8-3.7,1.6-5.7,0.5c-0.5-0.3-0.9-1.3-0.2-1.7
			C216.7,56.3,218.7,57.2,221,57.7z"/>
		<path class="st1" d="M194.2,57.2c1.1,0,2.4,0.2,2.1,0.9c-0.7,2.1-3.2,1.7-4.8,2.8c-0.3,0.2-2-0.9-1.6-1.8
			C190.8,57.3,193,57.9,194.2,57.2z"/>
		<path class="st1" d="M204.9,56.5c1.2,0.4,3.4-0.3,3.2,1.3c-0.3,1.9-2.9,1-4.4,1.6c-1.1,0.4-2-0.1-2-1.2
			C201.8,55.9,203.7,56.8,204.9,56.5z"/>
		<path class="st1" d="M185.6,59.3c0.1,1.7-0.8,2.1-1.8,2.3c-1.1,0.2-2.3,0.9-3.5,0c-0.2-0.2-0.4-0.8-0.3-1c0.6-1.4,1.8-1.3,3.1-1.3
			C183.9,59.3,184.7,59.3,185.6,59.3z"/>
		<path class="st1" d="M171,61c0.9,0,2.2-0.2,2.2,1c0,2.2-2.1,2-3.5,2.4c-1.1,0.3-2-0.2-1.9-1.3C167.8,61.1,169.6,61.3,171,61z"/>
		<path class="st1" d="M158,64.8c1.5-0.1,3.1-0.3,4.6-0.4c-0.4,3.3-2,4.1-5.7,2.8C157.3,66.4,157.6,65.6,158,64.8
			C157.9,64.9,158,64.8,158,64.8z"/>
		<path class="st1" d="M143,75.6c-0.8,0.4-1.6,0.9-2.4,1.3c-2.1,1.1-2.3-0.1-2-1.7c0.4-0.3,0.8-0.5,1.2-0.8c0.6,0.1,0.9-0.2,1.1-0.7
			C142.4,73.3,144.1,72.9,143,75.6z"/>
		<path class="st1" d="M151.4,67.8c0.9,0.3,1.9,0.7,1.7,1.8c-0.4,1.7-2.1,1.8-3.4,2.4c-0.7,0.3-1.7,0.4-2-0.5
			c-0.1-0.4,0.5-1.1,0.8-1.6C149.7,69.5,150.6,68.8,151.4,67.8z"/>
		<path class="st1" d="M304.4,87.4c-0.2-0.2-0.5-0.5-0.7-0.7c0.5-0.8,1.4-2.1,2.1-1.4C306.6,86.1,305.5,87,304.4,87.4z"/>
		<path class="st1" d="M313.2,93.8c-0.6,0-1.2-0.1-1.4-0.8c0-0.6,0.2-1.3,0.7-1.2C313.7,92,313.2,93,313.2,93.8z"/>
		<path class="st1" d="M268.8,64.3c-0.1,0.2-0.2,0.4-0.3,0.6c-0.2-0.2-0.5-0.4-0.7-0.7c-0.1-0.1,0.2-0.5,0.3-0.6
			C268.6,63.5,268.7,63.8,268.8,64.3z"/>
		<polygon class="st1" points="275.5,83 275.4,83.2 275.5,83.1 		"/>
		<polygon class="st1" points="326.3,102.3 326.2,102.6 326.4,102.4 		"/>
		<path class="st1" d="M245.1,123.9c-2.1-0.5-5.2,0.1-4.7-3.7c0.1-0.6-0.6-0.8-1.2-0.8c-3.1,0.3-5.8-1.2-8.7-1.6
			c-1.1-1.8-2.3-3.6-3.3-5.5c-0.5-1-0.5-2.2,0.6-2.8c1.2-0.7,1.6,0.3,2.1,1.1c0.4,0.7,0.8,1.1,1.8,1.2c4.5,0.3,8.4,1.8,10.4,6.4
			C243.1,120.1,244.7,121.7,245.1,123.9z"/>
		<path class="st1" d="M168.2,101.1c0.8-1.4,1.7-1.4,2.8-0.2c1,1.1,1.9,3,3.6,2c1.5-0.8,1.9-2.7,1.7-4.5c-0.1-0.8-0.2-1.6-0.2-2.3
			c1.8-0.2,3.7-0.3,4,2.1c0.3,2.2,0.9,4.5-1.3,6.2c-1.9,1.5-4,1.7-5.9,0.5C171.2,103.8,169.8,102.4,168.2,101.1z"/>
		<path class="st1" d="M120.6,80.6c3.3,2,7.3,1.7,10.6,3.7c-3.1,1.1-6-0.3-8.8-1C121,83,120.4,82,120.6,80.6z"/>
		<path class="st1" d="M199.5,113c0.9-0.4,1.8-0.7,2.7-1.1c0.2,0.1,0.5,0.2,0.7,0.2c0.6,0.8,1.1,1.6,1.7,2.3
			c-0.2,0.6-0.1,1.3-0.8,1.7C203.2,113.9,199.1,116.5,199.5,113z"/>
		<path class="st1" d="M229.5,122.1c0-0.9-0.1-1.8-0.1-2.7c0.3,0,0.6-0.1,1-0.1c0.9,1.4-0.4,4,2.4,4.4
			C230.6,125.5,229.6,124.7,229.5,122.1z"/>
		<path class="st1" d="M115.2,78.2c1.8,0.2,3.7,0.2,4.7,2.2C117.9,80.4,115.3,81.8,115.2,78.2z"/>
		<path class="st1" d="M235.8,125.9c3-0.4,2.8,2,3.4,3.8C237,129.3,236.1,127.9,235.8,125.9z"/>
		<path class="st1" d="M195.5,111.4c1.1-0.1,1.9,0.3,2.5,1.2c-0.2,0.7-0.4,1.6-1.4,1.4C195.3,113.6,195.7,112.3,195.5,111.4z"/>
		<path class="st1" d="M225.3,121.9c0.8-0.4,1.5-1.6,2.5-0.3c-0.1,0.7,0.1,1.8-0.8,1.9C226,123.7,225.5,122.8,225.3,121.9z"/>
		<path class="st1" d="M161.8,91.7c-1.2,1.1-2,0.9-2.4-0.6C160.2,91,161,91.2,161.8,91.7z"/>
		<path class="st1" d="M122.9,87.5c-0.9,0.5-1.4,0.1-1.7-0.8C122,86.5,122.6,86.7,122.9,87.5z"/>
		<path class="st1" d="M222.5,120.8c0.5,0.3,0.9,0.6,1.4,0.9C222.5,122.7,222.4,121.8,222.5,120.8z"/>
		<path class="st1" d="M234.1,124.2c1.1,0,1.6,0.5,1.6,1.6C235.2,125.3,234.7,124.8,234.1,124.2z"/>
		<path class="st1" d="M215.8,111.2c-0.6,0-1.3,0-1.5-0.7c-0.1-0.6,0.3-0.9,0.8-1C215.4,110,215.6,110.6,215.8,111.2z"/>
		<path class="st1" d="M250.6,239.1c0-1.6,0.1-3.1,0.1-4.7c2.6-1.6,5.7-2.2,7.9-4.5c5.3-0.2,8.6-3.6,11.8-7.3c3.8-1,6.8-3.6,9.1-6.2
			c4.9-5.5,11.2-9.9,14-17.2c1-2.7,0.2-5.9,2.5-8.1c0.5-0.1,1.3,0,1.3-0.8c0-0.3-0.7-0.5-1.1-0.8c0-0.3,0.1-0.5,0.1-0.8
			c1-0.6,1.1-1.6,1.1-2.6c0.4-4.6,0.8-9.2,1.1-13.8c0.8-1.4,0.4-2.8-0.3-4.1c-0.1-0.3-0.1-0.6-0.2-0.9c0.6-2.7,2.9-4.4,4-6.9
			c1-2.1,2.9-0.3,4.3-0.9c0.2-2.6-1.4-3.5-3.4-4.2c-0.7-1.6-1.4-3.2-2.1-4.8c2.3,0.5,4.4,0.4,5.1-2.4c1.3,1,2.7,1,4,0.1
			c0.7-0.5,1.3-1.2,2-0.4c0.8,0.8,0.1,1.4-0.6,1.8c-1.8,1.2-1,2.8,0.1,3.6c1.5,1,1.5-0.8,1.8-1.7c0.5-1.1,1.5-1,2.3-1.2
			c-0.1,1.6-2.2,2.4-1.5,4.3c0.3,0.9,0.6,1.9-0.9,2.2c-1,0.1-1.7-0.2-2.5-1c-1.3-1.4-1.4-3.7-3.2-4.9c-1.4,4.1,0.1,7.1,3.8,7.3
			c2.3,0.1,3.3,1.5,3.1,2.8c-0.4,2.4,4,4.9-0.1,7.1c1.4,2.7-0.6,5-1.6,7c-2.7,5.4-2.5,7.9,2.5,11.2c-1.8,0.2-2.9,3-4.4,1.2
			c-1.2-1.4-2.6-1-3.8-1.5c-0.9-0.3-2-0.7-2.2,0.6c-0.2,1,0.7,1.9,1.7,1.9c3.8-0.1,3.6,3.7,5.4,5.5c0.5,0.5,0.4,1.6-0.4,2.2
			c-1,0.7-1.3-0.4-1.8-0.9c-1.3-1.5-2.8-1.8-4-0.2c-0.9,1.3-2.7,0.8-3.2,1.4c-0.4,2.2,2.9,1,1.7,2.8c-0.7,1-1.3,2.7-3,2.8
			c-0.9,0-2-0.7-2.4,0.6c-0.5,1.5,1,1.6,1.8,2.2c0.9,0.7,2.9,1.9,0.6,2.8c-1.6,0.6-3.3,1.5-2.6,2.6c1,1.4,3.2,2.7,5.1,0.5
			c-1.3,2.8,1.3,3.8,2.5,5.4c-0.5,0.1-0.9,0.2-1.4,0.3c-2.2-0.8-3.8,0.6-5.6,1.3c-1.8-0.4-1.7-2.3-2.7-3.2c-1.1-1-3-2.6-4-1.6
			c-1.7,1.5,1.3,1.6,1.6,2.7c0.2,0.9,2.2,2,0.9,2.5c-1.8,0.7-1.7,3.4-3.6,3.2c-1.5-0.2-0.8-2-1-3.1c-0.2-0.8-0.3-1.7-1.3-1.7
			c-1.3,0-0.6,1.1-0.8,1.8c-0.7,3.4,0.5,6.5,1.1,9.7c-0.7,0.1-1.5,0.1-2.2,0.2l0,0c-0.6-1.7-1.4-1.8-1.6,0c-0.3,2.1-1.6,3.2-3.1,4.2
			c-0.9-0.4-0.7-1.1-0.6-1.7c0.2-1,0.9-2.3-0.5-2.8c-1.7-0.6-1.4,1.1-1.7,1.9c-0.4,1-1.2,1.4-2.2,1.6l0,0c0.1-0.9,1.2-1.9,0.4-2.6
			c-1.2-1-1.8,0.5-2.5,1.1c-1.9,1.6-4.3,2.9-3.1,6.1c0.4,1.1-0.5,1.5-1.3,2.2c-3.3,2.6-3.2,3.3,0.4,5.5c-1.3,1.9-3,2-3.9,0.1
			c-1.3-2.8-2.1-1.9-2.9,0.1c-0.4,0.9-0.5,1.9-1.8,1.6c-1.1-0.3-0.8-1.1-0.6-1.9c0.3-1-0.6-1-1.2-0.9c-0.7,0.2-1.2,0.7-0.9,1.5
			c0.5,1.1,1.2,2.1,1.6,3.2c0.7,1.6-0.2,2.9-1.3,3.9c-1.4,1.2-1.7-0.1-2.5-1c-1.6-1.8-1.3,1-2.2,1.2c-0.3-1,0.5-2.7-1.2-2.9
			c-1.5-0.1-1.6,1.5-2.1,2.8c1.1,0.1,2.2,0.1,3.2,0.2c-0.1,1.5,0.9,2,2,2.7c1,0.7,1.4,1.7,0.6,2.7c-0.9,1.1-1.6,0.3-2.2-0.5
			c-0.3-0.3-0.1-1.1-1-0.7c-2.4,0.9-2.4,0.8-2.8-1.7c-0.9,0.1-0.3,1.6-1.8,1.6c2-3.4-2.7-3.9-2.7-6.6
			C250.7,246.5,248.5,242.3,250.6,239.1z M309.4,163.5c1.9-0.4,1.8-1.7,1.4-3.4C309.8,161.3,309.5,162.4,309.4,163.5l-0.2,0.2
			L309.4,163.5z"/>
		<path class="st1" d="M292.4,142.7c-6.1-4-12.2-8.1-18.4-12c-1-0.6-1.6-1.3-2.2-2.2c0.4-2.2-0.8-2.1-2.3-1.5
			c-0.3-1.5-2.4-1.7-2.4-3.4c0.6-0.7-0.7-2.3,0.8-2.3c1.7,0,4.5,1,4.8,1.3c3.3,3.8,3-1.4,4.5-1.7c0.5,0.9,1.7,1.9,1.5,2.6
			c-0.8,3.3,0.6,2.9,2.1,1.2c1.5-1.7,2.9-0.6,4.4-0.6c0.7-0.1,1.3-0.2,2-0.3c-0.6,2.8,0.1,4.8,3.3,5.2c0,0.5,0,1,0,1.5
			c-1.3,0-2.9-0.3-2.7,1.6c0.2,2.3,2.3,1.4,3.7,1.7c0,0.3,0.1,0.5,0.1,0.8c-0.1,0.1-0.2,0.3-0.2,0.5c-1.8,1.2-1.2,2.2,0.3,2.9
			c1.2,0.5,2.5,1,3.9,0.7l0,0c0,0.5,0.1,1,0.1,1.5C296.2,143,292.9,141,292.4,142.7z"/>
		<path class="st1" d="M285.2,124.1c-1.5,0-2.9-1.1-4.4,0.6c-1.4,1.7-2.9,2.1-2.1-1.2c0.2-0.7-1-1.7-1.5-2.6
			c-1.5,0.3-1.1,5.4-4.5,1.7c-0.2-0.3-3.1-1.3-4.8-1.3c-1.5,0-0.2,1.6-0.8,2.3c-1.1-0.1-2.2-0.5-3.2-0.1c-3,1-3.2-0.5-2.7-2.7
			c0.9,0.1,1.8,0.3,2.8,0.4c1.3,0.1,2-1,1-1.6c-4.4-2.7-0.4-4,0.8-5.8c0.2,0.3,0.5,0.5,0.7,0.8c0,1.6-0.3,3.5,1.8,3.9
			c1.3,0.2,1.2-1.1,1.4-2c2.8-3,6.1-3.8,10-2.7c1.3,0.4,2.4,0.8,2.9,1.9c1,2.4,2.8,3.3,5.4,3.4C287.6,121,284.1,121.4,285.2,124.1z"
			/>
		<path class="st1" d="M292.4,142.7c0.4-1.7,3.7,0.2,3.3-2.6c2.7-0.9,4.2,1.1,5.8,2.7c1.4,3,2.6-0.4,3.9-0.1c2,1.6,3.1,3.3,0.7,5.5
			c-0.8,2.8-2.8,2.9-5.1,2.4c-1.6-0.5-3.1-1.1-4.6-1.6C295.4,146.7,292.4,145.7,292.4,142.7z"/>
		<path class="st1" d="M265.9,113.6c-1.2,1.8-5.2,3.1-0.8,5.8c1,0.6,0.3,1.7-1,1.6c-0.9-0.1-1.9-0.2-2.8-0.4c-0.3,0-0.6-0.1-1-0.1
			c0.2-2.3-0.9-2.8-2.8-1.8c-0.2-0.7-0.5-1.3-1.4-1.4c0-0.5-0.2-1.1,0-1.6c0.3-1.3-1.7-3.4,1.2-3.7c2.7-0.3,1.6,1.7,1.6,3
			c0,0.9,0.5,1.8,1.4,1.5c1.3-0.3,2.6-1.4,2.1-2.8c-0.6-1.7,1.1-0.5,1.1-1.2C264.3,112.9,265.1,113.2,265.9,113.6z"/>
		<path class="st1" d="M290.5,129c-3.2-0.4-3.9-2.4-3.3-5.2c0.6-0.2,1.7-0.3,1.8-0.7c1.2-3.6,3.2-2.4,5.1-0.8
			c2.8,2.4-0.1,3.6-1.3,5.1C292.2,128.1,291.3,128.5,290.5,129z"/>
		<path class="st1" d="M291.5,133.8c-1.4-0.3-3.4,0.6-3.7-1.7c-0.2-2,1.4-1.7,2.7-1.6c1.7-0.1,2.9,0.5,2.8,2.5c0,0,0,0,0,0
			C292.7,133.2,292.1,133.5,291.5,133.8z"/>
		<path class="st1" d="M305.5,142.7c-1.3-0.3-2.6,3.1-3.9,0.1c0.8-0.3,1.6-0.6,0.9-1.6c-0.5-0.7-1.5-1.4-0.3-2.2
			c1.2-0.7,1.5,0.4,1.9,1.2C304.3,141.1,305.7,141.4,305.5,142.7z"/>
		<path class="st1" d="M304.7,133c1.8,0.9,3,1.9,3.4,3.6c0.1,0.5-0.6,1-1.1,0.7C305.5,136.6,304.5,135.3,304.7,133z"/>
		<path class="st1" d="M269.8,116.3c-0.1,0.9-0.1,2.2-1.4,2c-2.2-0.4-1.8-2.3-1.8-3.9C267.7,115,268.8,115.6,269.8,116.3z"/>
		<path class="st1" d="M291.4,135.1c0-0.2,0-0.3,0.2-0.5c0.6-0.6,1.1-1.1,1.7-1.7c0,0,0,0,0,0c0.9,0.2,2.6,0,2.1,1.4
			C294.6,136.1,293,136,291.4,135.1z"/>
		<polygon class="st1" points="296.5,113.6 296.3,113.8 296.5,113.6 		"/>
		<path class="st1" d="M272.9,103.2c0.3,0.4,0.7,0.8,1,1.2C273.6,104,273.2,103.6,272.9,103.2z"/>
		<path class="st1" d="M256.1,92.3c-0.2,2.7-2.2,1.7-3.7,1.9c-0.8-1.1-2.4,0-3.2-1.2C251.2,89.4,253.9,93.7,256.1,92.3z"/>
		<path class="st1" d="M326.3,257.6c-0.1-0.1-0.2-0.1-0.2-0.2C326.2,257.5,326.3,257.5,326.3,257.6
			C326.4,257.6,326.3,257.6,326.3,257.6z"/>
		<path class="st1" d="M245,267.9c0.1-1.7-0.9-3.5,0.6-5.1c5,1.2,2.1,4.6,2.3,7.2C246.1,270,246.3,268,245,267.9z"/>
		<path class="st1" d="M246,260c0.5-1.8,0.2-3.8,1.5-5.4C249.3,257.2,248.7,259.3,246,260z"/>
		<path class="st1" d="M249.6,281c-0.4,1.7-1.2,2.7-3.1,1.5C247.6,282.1,247.4,279,249.6,281z"/>
		<polygon class="st1" points="249.7,284.9 249.8,284.7 249.7,284.9 		"/>
		<path class="st1" d="M280.1,300.3c0.9-0.6,1.2-0.9,1.6-1.1c1.5-0.6,2.7-2.3,4.6-1.6c0.5,0.2,0.5,1,0.2,1.4
			C285,300.7,283.2,301.6,280.1,300.3z"/>
		<polygon class="st1" points="277.9,231.8 277.8,232 277.9,231.8 		"/>
		<polygon class="st1" points="287.6,228.6 287.5,228.8 287.6,228.6 		"/>
		<path class="st1" d="M173.7,190.4c-3.1-3-7.4-3.9-10.8-6.4c-3.9-2.9-8.6-4.6-13-6.7c-1.4-0.6-2.1-1.2-1-2.6c0.2,0,0.5,0.1,0.7,0.1
			c8,2.8,14.9,7.8,22.5,11.3c0.6,0.9,1.3,1.5,2.4,1.5c4.2,1.6,7.7,4.8,12.2,5.9c0,0.4,0.1,1.1,0.1,1.1c-2.3,0.6-4.6,1.1-6.9,1.6
			C180.9,191.1,176.6,191.5,173.7,190.4z"/>
		<path class="st1" d="M113.3,122.5c-0.9-0.2-1.9-0.3-1.9-1.6c0-0.2,0.4-0.4,0.5-0.4C113.4,120.5,113.1,121.6,113.3,122.5
			C113.3,122.5,113.3,122.5,113.3,122.5z"/>
		<path class="st1" d="M117.4,180.4c-0.6-0.2-1.2-0.3-1.8-0.5C116.6,178.5,117.1,178.9,117.4,180.4z"/>
		<path class="st1" d="M110.9,110.4c0.2-0.2,0.3-0.3,0.5-0.5c0.1,0.1,0.1,0.2,0.2,0.4C111.3,110.3,111.1,110.4,110.9,110.4
			C110.9,110.4,110.9,110.4,110.9,110.4z"/>
		<path class="st1" d="M121.3,178c-0.2-0.2-0.3-0.4-0.5-0.6c0.1-0.1,0.3-0.2,0.4-0.3c0.1,0.2,0.1,0.5,0.2,0.7
			C121.4,177.9,121.3,178,121.3,178z"/>
		<path class="st1" d="M114.2,180.1c-0.6,0.3-0.8,0-0.8-0.6C113.6,179.7,113.9,179.9,114.2,180.1z"/>
		<polygon class="st1" points="82.2,101.8 82.1,101.5 82.4,101.5 		"/>
		<path class="st1" d="M76,123c0-0.1,0.1-0.2,0.1-0.3c0.1,0,0.2,0,0.3,0.1c0,0,0,0.2-0.1,0.2C76.2,123.1,76.1,123,76,123z"/>
		<path class="st1" d="M136.2,188.9c0.8-0.1,1.3,0.2,1.4,1C136.6,190.4,135.8,190.5,136.2,188.9z"/>
		<path class="st1" d="M227.9,195.7c0.8-3.5,4.6-4.1,6.4-6.7c5.8-8.3,5.8-17.3,4.1-26.7c-0.2-1.3-1.5-1.7-2.6-2.3
			c-1.2-1.5-3-2.6-3.6-4.6c0.5-0.1,1-0.2,1.5-0.3c6.5,4.8,11.7,11,17.7,16.3c-0.6,1.5-1.6,0.6-2.5,0.4c-1.2-2.1-3.4-3.1-5.3-2.4
			c-2.1,0.8-0.4,3.3-0.7,5c-0.1,0.6,0.5,1.2,0.7,1.8c-0.1,0.3-0.3,0.6-0.4,1c-1.8,0.5-1.8,2.1-2.2,3.5c-1.2,1.8-1.6,3.8-2.2,5.8
			c-0.2,0.1-0.3,0.2-0.2,0.4c-1.4,1.1-2.4,2.5-2.8,4.3C232.7,191.9,231.3,195.6,227.9,195.7z"/>
		<path class="st1" d="M176.3,121.3c0.4-0.8,0.7-2,1.8-1.5c1.2,0.5,0.8,1.7,0.5,2.7C177.7,122.4,176.7,122.4,176.3,121.3z"/>
		<path class="st1" d="M162,127.8c-1.9,0.4-2.7-0.3-2.4-2.3C161.1,125.5,161.8,126.3,162,127.8z"/>
		<path class="st1" d="M186.1,136.1c-0.5,0.5-1.2,1.1-1.7,0.5c-0.7-1,0.5-1.9,0.7-2.9C186.1,134.2,185.9,135.2,186.1,136.1z"/>
		<path class="st1" d="M190.2,134.6c0.4,1.8,0.4,1.8-2.5,1.7C188.1,135,189,134.6,190.2,134.6z"/>
		<path class="st1" d="M159.5,125.5c-0.6,0-1.3,0-1.9,0c0.2-0.7,0-1.8,1.2-1.7C159,123.8,159.2,124.9,159.5,125.5z"/>
		<path class="st1" d="M180.3,123.2c1.2-1.2,2-0.9,2.5,0.7C181.8,124.1,181,123.9,180.3,123.2z"/>
		<path class="st1" d="M189.9,126c0.2-0.5,0.6-1,1.1-0.5c0.5,0.5,0,0.8-0.5,1.1C190.3,126.4,190.1,126.2,189.9,126z"/>
		<path class="st1" d="M175.4,129.7c0-0.1,0.1-0.2,0.1-0.3C175.5,129.5,175.5,129.6,175.4,129.7
			C175.5,129.7,175.4,129.7,175.4,129.7z"/>
		<path class="st1" d="M201,248.6c0.4,1.2-0.3,1.6-1.3,1.7c-1.1,0-2.1,0.1-2.6-1.1c-0.1-0.2,0.2-0.9,0.3-0.9
			C198.6,248.4,199.9,246.6,201,248.6z"/>
		<path class="st1" d="M216.6,242.3c-1.5,0.1-1.9,1.3-2.4,2.4c-0.2-0.1-0.4-0.2-0.6-0.2c-0.1-1-0.1-2-0.2-3.1
			c1.6-0.1,2.3-0.9,2.4-2.4C216.8,240,216.4,241.2,216.6,242.3z"/>
		<path class="st1" d="M195.3,269.1C195.3,269.1,195.2,269.1,195.3,269.1c-0.4-0.6-1-1.2-0.6-2.1
			C195.9,267.5,195.2,268.4,195.3,269.1z"/>
		<polygon class="st1" points="195.1,264.9 195.2,264.6 195.4,264.9 		"/>
		<path class="st1" d="M205.3,260c0.1,0.7-0.2,1-0.8,1.3c0-0.5-0.1-0.9-0.1-1.4C204.7,259.9,205,259.9,205.3,260z"/>
		<path class="st1" d="M82.6,227.9c0,0.7,0.1,1.6-0.9,1.5c-1.5-0.1-1.8-1.4-2-2.6c-0.1-0.7,0.1-1.5,0.9-1.5
			C82.4,225.3,82,227,82.6,227.9z"/>
		<path class="st1" d="M176.7,198.9c0,1.1-0.7,1.1-1.4,0.9c0.1-0.5,0.1-0.9,0.2-1.4C175.9,198.6,176.3,198.7,176.7,198.9z"/>
		<path class="st1" d="M219.9,284.1c2.5,1.8-0.5,1.7-0.9,2.5C219.1,285.6,219.2,284.8,219.9,284.1z"/>
		<path class="st1" d="M177.9,225.4c-0.1,0-0.2-0.1-0.2-0.1C177.8,225.4,177.8,225.4,177.9,225.4
			C177.9,225.5,177.9,225.4,177.9,225.4z"/>
		<path class="st1" d="M274.7,167.4c-0.8,3.7-3.3,0.6-4.9,1.2c-4.3-1.5-5.3-5.7-7.1-9.1c-0.2-0.3,0.2-1.2,0.4-1.3
			c1.4-0.4,2,0.8,2.4,1.7C267.3,163.9,270.5,166.2,274.7,167.4z"/>
		<path class="st1" d="M231.1,141.9c0.8,0.3,1.6,0.7,2.4,1c0.3,0.2,0.7,0.5,1,0.7c0,0.2,0.1,0.3,0.2,0.5c3.1,2.8,6.6,5.1,8,9.5
			c-5-3.4-8.4-8.9-14.8-10C228.8,141.1,230.6,143.6,231.1,141.9z"/>
		<polygon class="st1" points="226,202 225.9,202.3 225.8,202 		"/>
		<path class="st1" d="M219.8,208.5c0.3-0.6,0.5-1.1,0.8-1.7C221.6,208,220.8,208.3,219.8,208.5z"/>
		<path class="st1" d="M257.5,118.7c2-1,3-0.5,2.8,1.8C258.4,121.5,257.7,120.5,257.5,118.7z"/>
		<path class="st1" d="M269.6,127c1.5-0.5,2.6-0.6,2.3,1.5C270.8,128.4,269.9,128,269.6,127z"/>
		<path class="st1" d="M162.3,164.8c0.2,0,0.4,0.1,0.7,0.1c-0.1,0.3-0.3,0.7-0.4,1C162.5,165.6,162.4,165.2,162.3,164.8z"/>
		<path class="st1" d="M170.6,174.7c0.3,0.2,0.6,0.5,0.8,0.7C171.2,175.2,170.9,175,170.6,174.7z"/>
		<path class="st1" d="M154,197.3c0.2-0.1,0.3-0.3,0.5-0.4c0.1,0.2,0.2,0.3,0.3,0.5c0,0-0.2,0.3-0.2,0.2
			C154.4,197.6,154.2,197.4,154,197.3z"/>
		<path class="st1" d="M224,170.7c-2-0.7-2.4-2.2-1.9-4.1c1,0.3,1.8,0.9,2.6,1.7c2.9,3.1,4,2.7,5.4-1.4c1.1-3.2-2.2-2.4-3.3-3.6
			c0.5-1.3-0.8-2.7,0.3-3.9c1.2,3.6,1.2,3.6,4.9,2.4c0.7,0,1.3,0.1,2,0.1c1.4,6.2,2.6,12.4,0.1,18.7c-1.6,4-3.1,8-7.1,10.3
			c-0.1-1.4,1.3-2.7-0.4-4.3c-0.7,1-1,2.2-2.4,2.6c-2.9,0.8-1.4,2-0.2,3.2c-0.7,1.6-1.7,2.8-3.5,3.2c-0.5-3.2-1.1-6.5-1.6-9.7
			c2.6,0.2,6.6,3,6-3.1c0-0.1,0.1-0.3,0.2-0.3c3.9-1,0.6-4.9,2.6-6.7c0.3-0.3-0.1-1.6-0.7-1.6C224.7,174.1,224.9,172,224,170.7z"/>
		<path class="st1" d="M296.3,189.6c0.4,0.3,1.1,0.5,1.1,0.8c0,0.8-0.8,0.7-1.3,0.8C296.1,190.6,296.2,190.1,296.3,189.6z"/>
		<path class="st1" d="M224.1,192.5c-1.2-1.1-2.7-2.4,0.2-3.2c1.4-0.4,1.8-1.6,2.4-2.6c1.6,1.6,0.3,3,0.4,4.3
			C226.7,192.8,225.3,192.5,224.1,192.5z"/>
		<path class="st1" d="M235.5,261.6c-0.1,0.2-0.2,0.5-0.4,0.5c-0.4,0.1-0.8,0-0.7-0.5c0-0.2,0.3-0.4,0.5-0.4
			C235.1,261.2,235.3,261.4,235.5,261.6z"/>
		<path class="st1" d="M298.4,168.3c0.7,1.3,1,2.7,0.3,4.1C297.5,171.1,295.3,169.9,298.4,168.3z"/>
		<polygon class="st1" points="294.1,171.5 294.2,171.4 294.1,171.5 		"/>
		<path class="st1" d="M222,226.2c-0.1,0.1-0.1,0.1-0.2,0.2c0-0.1-0.1-0.2-0.1-0.2c0-0.1,0.1-0.1,0.2-0.2
			C221.9,226.1,222,226.2,222,226.2z"/>
		<path class="st1" d="M224.2,140.4c-0.2,0-0.4-0.1-0.6-0.1c0-0.1,0-0.3,0.1-0.3c0.2,0,0.4,0,0.6,0.1
			C224.2,140.2,224.2,140.3,224.2,140.4z"/>
		<path class="st1" d="M234.5,143.7c-0.3-0.2-0.7-0.5-1-0.7c0.3-0.2,0.7-0.6,0.8-0.5C235,142.7,234.7,143.2,234.5,143.7z"/>
		<polygon class="st1" points="234.3,139.4 234.5,139.6 234.4,139.3 		"/>
		<path class="st1" d="M256.1,252c-1-0.1-2.1-0.1-3.2-0.2c0.5-1.3,0.6-2.9,2.1-2.8C256.7,249.2,255.9,250.9,256.1,252
			C256.2,251.9,256.1,252,256.1,252z"/>
		<path class="st1" d="M309.4,163.5c0.1-1.2,0.4-2.2,1.4-3.4C311.2,161.8,311.3,163,309.4,163.5L309.4,163.5z"/>
		<polygon class="st1" points="309.4,163.5 309.2,163.7 309.4,163.5 		"/>
		<path class="st1" d="M307.5,196.4c1.4,1.8,2.6,2.6,2.1,4.6C307.5,200.4,307.1,199.2,307.5,196.4z"/>
		<polygon class="st1" points="318.3,155.4 318.1,155.2 318.3,155.5 		"/>
		<path class="st1" d="M293.3,132.9c-0.6,0.6-1.1,1.1-1.7,1.7c0-0.3-0.1-0.5-0.1-0.8C292.1,133.5,292.7,133.2,293.3,132.9z"/>
		<path class="st1" d="M252.7,96.8c-0.1,0.1-0.2,0.2-0.2,0.2c-0.1-0.1-0.2-0.2-0.2-0.3C252.5,96.4,252.6,96.4,252.7,96.8z"/>
		<path class="st1" d="M150.4,159.5c-0.1-0.1-0.2-0.1-0.3-0.2C150.2,159.3,150.4,159.4,150.4,159.5
			C150.5,159.4,150.4,159.5,150.4,159.5z"/>
		<path class="st1" d="M175.5,194.9c0-0.2,0.1-0.5,0.1-0.7c0.1,0.1,0.2,0.1,0.3,0.2C175.8,194.5,175.6,194.7,175.5,194.9
			C175.4,194.8,175.5,194.9,175.5,194.9z"/>
		<path class="st1" d="M344.1,146c-0.6-1.5-2.2-2.9-0.3-4.6c2,1.1,2.9,2.6,2.2,4.9C345.2,146.7,344.6,146.8,344.1,146z"/>
		<path class="st1" d="M244.7,272.6c0.9,3.7-3.1,7.1-2.2,11.5c0.1,0.6-0.7,1.1-1.4,1.1c-0.8,0-1.5-0.6-1.2-1.2
			c1.8-4,0.1-8.7,2.4-12.6c0.5-0.8,0.6-2,1.9-1.5C245.2,270.3,245.1,271.2,244.7,272.6z"/>
		<path class="st1" d="M205.7,146.2c-0.5-0.6-1.6-0.5-1.9-1.5c0.8-0.7,1.9,0.2,2.8,0.4c0.9,0.2,2.4,1,1.7-0.9
			c-0.1-0.3-0.2-0.6,0.1-0.5c0.2,0,0.5,0.5,0.7,0.5c3,0.8,5.5,3.6,8.7,4.2c1.3,1.2,3.2,1.1,4.3,2.6c-0.5,0.6-1,1.2-1.4,1.8
			c-2.7-0.8-5.3-2.6-8-1.9c-1.2-0.5-1.6-0.1-1.1,1c0.5,1,0.6,1.9,0.2,2.7c-1.7,1.7-3.7-0.1-5.5-1.2c0.4-1.6,0.1-3.3-0.5-5
			c0,0,0-0.1,0-0.1C206.9,146.9,206.9,146.9,205.7,146.2z"/>
	</g>
</g>
</svg>
